<svg xmlns="http://www.w3.org/2000/svg" xmlns:xlink="http://www.w3.org/1999/xlink" contentStyleType="text/css" data-diagram-type="DESCRIPTION" height="1150px" preserveAspectRatio="none" style="width:2604px;height:1150px;background:#FFFFFF;" version="1.1" viewBox="0 0 2604 1150" width="2604px" zoomAndPan="magnify"><title>Mazle Architecture (Current + Planned)</title><defs/><g><g class="title" data-source-line="1"><text fill="#000000" font-family="sans-serif" font-size="14" font-weight="bold" lengthAdjust="spacing" textLength="282.7754" x="1154.015" y="23.5352">Mazle Architecture (Current + Planned)</text></g><!--cluster CLIENT--><g class="cluster" data-entity="CLIENT" data-source-line="10" data-uid="ent0003" id="cluster_CLIENT"><rect fill="#F7F7F7" height="246.71" rx="2.5" ry="2.5" style="stroke:#333333;stroke-width:1;" width="190" x="309" y="166.4783"/><text fill="#000000" font-family="sans-serif" font-size="14" font-weight="bold" lengthAdjust="spacing" textLength="115.8281" x="346.0859" y="182.0134">Client (Browser)</text></g><!--cluster VERCEL--><g class="cluster" data-entity="VERCEL" data-source-line="15" data-uid="ent0006" id="cluster_VERCEL"><rect fill="#F7F7F7" height="256.43" rx="2.5" ry="2.5" style="stroke:#333333;stroke-width:1;" width="1280" x="563" y="577.6783"/><text fill="#000000" font-family="sans-serif" font-size="14" font-weight="bold" lengthAdjust="spacing" textLength="44.5566" x="1180.7217" y="593.2134">Vercel</text></g><!--cluster OIDC--><g class="cluster" data-entity="OIDC" data-source-line="27" data-uid="ent0016" id="cluster_OIDC"><rect fill="#F7F7F7" height="87.48" rx="2.5" ry="2.5" style="stroke:#333333;stroke-width:1;" width="273" x="266" y="738.3783"/><text fill="#000000" font-family="sans-serif" font-size="14" font-weight="bold" lengthAdjust="spacing" textLength="118.8906" x="343.0547" y="753.9134">External Identity</text></g><!--cluster DATA--><g class="cluster" data-entity="DATA" data-source-line="32" data-uid="ent0019" id="cluster_DATA"><rect fill="#F7F7F7" height="129.46" rx="2.5" ry="2.5" style="stroke:#333333;stroke-width:1;" width="663" x="1195" y="883.1083"/><text fill="#000000" font-family="sans-serif" font-size="14" font-weight="bold" lengthAdjust="spacing" textLength="82.9473" x="1485.0264" y="898.6434">Data Stores</text></g><!--cluster PAY--><g class="cluster" data-entity="PAY" data-source-line="38" data-uid="ent0023" id="cluster_PAY"><rect fill="#F7F7F7" height="211.22" rx="2.5" ry="2.5" style="stroke:#333333;stroke-width:1;" width="160" x="1301" y="317.4583"/><text fill="#000000" font-family="sans-serif" font-size="14" font-weight="bold" lengthAdjust="spacing" textLength="69.542" x="1346.229" y="332.9934">Payments</text></g><!--cluster GEN--><g class="cluster" data-entity="GEN" data-source-line="43" data-uid="ent0026" id="cluster_GEN"><rect fill="#F7F7F7" height="414.42" rx="2.5" ry="2.5" style="stroke:#333333;stroke-width:1;" width="235" x="7" y="730.1283"/><text fill="#000000" font-family="sans-serif" font-size="14" font-weight="bold" lengthAdjust="spacing" textLength="124.3115" x="62.3442" y="745.6634">Generator (Fly.io)</text></g><!--cluster JOBS--><g class="cluster" data-entity="JOBS" data-source-line="49" data-uid="ent0030" id="cluster_JOBS"><rect fill="#F7F7F7" height="103.98" rx="2.5" ry="2.5" style="stroke:#333333;stroke-width:1;" width="157" x="1867" y="730.1283"/><text fill="#000000" font-family="sans-serif" font-size="14" font-weight="bold" lengthAdjust="spacing" textLength="141.5449" x="1874.7275" y="745.6634">Ops/Jobs (planned)</text></g><!--entity UI--><g class="entity" data-entity="UI" data-source-line="11" data-uid="ent0004" id="entity_UI"><rect fill="#F1F1F1" height="52.9766" rx="2.5" ry="2.5" style="stroke:#181818;stroke-width:0.5;" width="117.0771" x="365.46" y="201.4783"/><text fill="#000000" font-family="sans-serif" font-size="14" lengthAdjust="spacing" textLength="65.9531" x="375.46" y="225.0134">Next.js UI</text><text fill="#000000" font-family="sans-serif" font-size="14" lengthAdjust="spacing" textLength="97.0771" x="375.46" y="241.5017">(Phaser Game)</text></g><!--entity WASM--><g class="entity" data-entity="WASM" data-source-line="12" data-uid="ent0005" id="entity_WASM"><rect fill="#F1F1F1" height="52.9766" rx="2.5" ry="2.5" style="stroke:#181818;stroke-width:0.5;" width="133.0938" x="325.45" y="344.2083"/><text fill="#000000" font-family="sans-serif" font-size="14" lengthAdjust="spacing" textLength="113.0938" x="335.45" y="367.7434">WASM Generator</text><text fill="#000000" font-family="sans-serif" font-size="14" lengthAdjust="spacing" textLength="61.9746" x="335.45" y="384.2317">(fallback)</text></g><!--entity API--><g class="entity" data-entity="API" data-source-line="16" data-uid="ent0007" id="entity_API"><rect fill="#F1F1F1" height="36.4883" rx="2.5" ry="2.5" style="stroke:#181818;stroke-width:0.5;" width="144.3936" x="855.8" y="620.9183"/><text fill="#000000" font-family="sans-serif" font-size="14" lengthAdjust="spacing" textLength="124.3936" x="865.8" y="644.4534">Next.js API Routes</text></g><!--entity DAILY_API--><g class="entity" data-entity="DAILY_API" data-source-line="17" data-uid="ent0008" id="entity_DAILY_API"><rect fill="#F1F1F1" height="52.9766" rx="2.5" ry="2.5" style="stroke:#181818;stroke-width:0.5;" width="124.9932" x="1494.5" y="612.6783"/><text fill="#000000" font-family="sans-serif" font-size="14" lengthAdjust="spacing" textLength="104.9932" x="1504.5" y="636.2134">Daily Cache API</text><text fill="#000000" font-family="sans-serif" font-size="14" lengthAdjust="spacing" textLength="98.2119" x="1504.5" y="652.7017">GET /api/daily</text></g><!--entity DAILY_CACHE_API--><g class="entity" data-entity="DAILY_CACHE_API" data-source-line="18" data-uid="ent0009" id="entity_DAILY_CACHE_API"><rect fill="#F1F1F1" height="52.9766" rx="2.5" ry="2.5" style="stroke:#181818;stroke-width:0.5;" width="172.5645" x="1654.72" y="612.6783"/><text fill="#000000" font-family="sans-serif" font-size="14" lengthAdjust="spacing" textLength="131.9883" x="1664.72" y="636.2134">Daily Cache Backfill</text><text fill="#000000" font-family="sans-serif" font-size="14" lengthAdjust="spacing" textLength="152.5645" x="1664.72" y="652.7017">POST /api/daily/cache</text></g><!--entity CRON_API--><g class="entity" data-entity="CRON_API" data-source-line="19" data-uid="ent0010" id="entity_CRON_API"><rect fill="#F1F1F1" height="52.9766" rx="2.5" ry="2.5" style="stroke:#181818;stroke-width:0.5;" width="183.3037" x="605.35" y="765.1283"/><text fill="#000000" font-family="sans-serif" font-size="14" lengthAdjust="spacing" textLength="98.0342" x="615.35" y="788.6634">Cron Generate</text><text fill="#000000" font-family="sans-serif" font-size="14" lengthAdjust="spacing" textLength="163.3037" x="615.35" y="805.1517">GET /api/cron/generate</text></g><!--entity VERCEL_CRON--><g class="entity" data-entity="VERCEL_CRON" data-source-line="20" data-uid="ent0011" id="entity_VERCEL_CRON"><rect fill="#F1F1F1" height="52.9766" rx="2.5" ry="2.5" style="stroke:#181818;stroke-width:0.5;" width="98.832" x="721.58" y="612.6783"/><text fill="#000000" font-family="sans-serif" font-size="14" lengthAdjust="spacing" textLength="78.832" x="731.58" y="636.2134">Vercel Cron</text><text fill="#000000" font-family="sans-serif" font-size="14" lengthAdjust="spacing" textLength="71.9072" x="731.58" y="652.7017">(11 PM ET)</text></g><!--entity AUTH--><g class="entity" data-entity="AUTH" data-source-line="21" data-uid="ent0012" id="entity_AUTH"><rect fill="#F1F1F1" height="52.9766" rx="2.5" ry="2.5" style="stroke:#181818;stroke-width:0.5;" width="107.6094" x="579.2" y="612.6783"/><text fill="#000000" font-family="sans-serif" font-size="14" lengthAdjust="spacing" textLength="87.6094" x="589.2" y="636.2134">Auth.js OIDC</text><text fill="#000000" font-family="sans-serif" font-size="14" lengthAdjust="spacing" textLength="63.6836" x="589.2" y="652.7017">(planned)</text></g><!--entity STRIPE_WEBHOOK--><g class="entity" data-entity="STRIPE_WEBHOOK" data-source-line="22" data-uid="ent0013" id="entity_STRIPE_WEBHOOK"><rect fill="#F1F1F1" height="52.9766" rx="2.5" ry="2.5" style="stroke:#181818;stroke-width:0.5;" width="126.251" x="1201.87" y="612.6783"/><text fill="#000000" font-family="sans-serif" font-size="14" lengthAdjust="spacing" textLength="106.251" x="1211.87" y="636.2134">Stripe Webhook</text><text fill="#000000" font-family="sans-serif" font-size="14" lengthAdjust="spacing" textLength="63.6836" x="1211.87" y="652.7017">(planned)</text></g><!--entity LB_API--><g class="entity" data-entity="LB_API" data-source-line="23" data-uid="ent0014" id="entity_LB_API"><rect fill="#F1F1F1" height="52.9766" rx="2.5" ry="2.5" style="stroke:#181818;stroke-width:0.5;" width="130.8789" x="1035.56" y="612.6783"/><text fill="#000000" font-family="sans-serif" font-size="14" lengthAdjust="spacing" textLength="110.8789" x="1045.56" y="636.2134">Leaderboard API</text><text fill="#000000" font-family="sans-serif" font-size="14" lengthAdjust="spacing" textLength="63.6836" x="1045.56" y="652.7017">(planned)</text></g><!--entity ARCHIVE_API--><g class="entity" data-entity="ARCHIVE_API" data-source-line="24" data-uid="ent0015" id="entity_ARCHIVE_API"><rect fill="#F1F1F1" height="52.9766" rx="2.5" ry="2.5" style="stroke:#181818;stroke-width:0.5;" width="96.2002" x="1362.9" y="612.6783"/><text fill="#000000" font-family="sans-serif" font-size="14" lengthAdjust="spacing" textLength="76.2002" x="1372.9" y="636.2134">Archive API</text><text fill="#000000" font-family="sans-serif" font-size="14" lengthAdjust="spacing" textLength="63.6836" x="1372.9" y="652.7017">(planned)</text></g><!--entity GOOGLE--><g class="entity" data-entity="GOOGLE" data-source-line="28" data-uid="ent0017" id="entity_GOOGLE"><rect fill="#F1F1F1" height="36.4883" rx="2.5" ry="2.5" style="stroke:#181818;stroke-width:0.5;" width="107.4043" x="415.3" y="773.3783"/><text fill="#000000" font-family="sans-serif" font-size="14" lengthAdjust="spacing" textLength="87.4043" x="425.3" y="796.9134">Google OIDC</text></g><!--entity APPLE--><g class="entity" data-entity="APPLE" data-source-line="29" data-uid="ent0018" id="entity_APPLE"><rect fill="#F1F1F1" height="36.4883" rx="2.5" ry="2.5" style="stroke:#181818;stroke-width:0.5;" width="98.6406" x="281.68" y="773.3783"/><text fill="#000000" font-family="sans-serif" font-size="14" lengthAdjust="spacing" textLength="78.6406" x="291.68" y="796.9134">Apple OIDC</text></g><!--entity REDIS_KV--><g class="entity" data-entity="REDIS_KV" data-source-line="33" data-uid="ent0020" id="entity_REDIS_KV"><path d="M1685.5,928.1083 C1685.5,918.1083 1763.9961,918.1083 1763.9961,918.1083 C1763.9961,918.1083 1842.4922,918.1083 1842.4922,928.1083 L1842.4922,986.5731 C1842.4922,996.5731 1763.9961,996.5731 1763.9961,996.5731 C1763.9961,996.5731 1685.5,996.5731 1685.5,986.5731 L1685.5,928.1083" fill="#F1F1F1" style="stroke:#181818;stroke-width:0.5;"/><path d="M1685.5,928.1083 C1685.5,938.1083 1763.9961,938.1083 1763.9961,938.1083 C1763.9961,938.1083 1842.4922,938.1083 1842.4922,928.1083" fill="none" style="stroke:#181818;stroke-width:0.5;"/><text fill="#000000" font-family="sans-serif" font-size="14" lengthAdjust="spacing" textLength="95.5186" x="1695.5" y="955.6434">Upstash Redis</text><text fill="#000000" font-family="sans-serif" font-size="14" lengthAdjust="spacing" textLength="136.9922" x="1695.5" y="972.1317">(Daily Puzzle Cache)</text><text fill="#000000" font-family="sans-serif" font-size="14" lengthAdjust="spacing" textLength="40.9268" x="1695.5" y="988.62">(DB 1)</text></g><!--entity REDIS_LB--><g class="entity" data-entity="REDIS_LB" data-source-line="34" data-uid="ent0021" id="entity_REDIS_LB"><path d="M1211.35,928.1083 C1211.35,918.1083 1293.0009,918.1083 1293.0009,918.1083 C1293.0009,918.1083 1374.6518,918.1083 1374.6518,928.1083 L1374.6518,986.5731 C1374.6518,996.5731 1293.0009,996.5731 1293.0009,996.5731 C1293.0009,996.5731 1211.35,996.5731 1211.35,986.5731 L1211.35,928.1083" fill="#F1F1F1" style="stroke:#181818;stroke-width:0.5;"/><path d="M1211.35,928.1083 C1211.35,938.1083 1293.0009,938.1083 1293.0009,938.1083 C1293.0009,938.1083 1374.6518,938.1083 1374.6518,928.1083" fill="none" style="stroke:#181818;stroke-width:0.5;"/><text fill="#000000" font-family="sans-serif" font-size="14" lengthAdjust="spacing" textLength="143.3018" x="1221.35" y="955.6434">Upstash Redis Global</text><text fill="#000000" font-family="sans-serif" font-size="14" lengthAdjust="spacing" textLength="132.1797" x="1221.35" y="972.1317">(Daily Leaderboard)</text><text fill="#000000" font-family="sans-serif" font-size="14" lengthAdjust="spacing" textLength="40.9268" x="1221.35" y="988.62">(DB 2)</text></g><!--entity DB--><g class="entity" data-entity="DB" data-source-line="35" data-uid="ent0022" id="entity_DB"><path d="M1409.78,928.1083 C1409.78,918.1083 1530.0027,918.1083 1530.0027,918.1083 C1530.0027,918.1083 1650.2253,918.1083 1650.2253,928.1083 L1650.2253,986.5731 C1650.2253,996.5731 1530.0027,996.5731 1530.0027,996.5731 C1530.0027,996.5731 1409.78,996.5731 1409.78,986.5731 L1409.78,928.1083" fill="#F1F1F1" style="stroke:#181818;stroke-width:0.5;"/><path d="M1409.78,928.1083 C1409.78,938.1083 1530.0027,938.1083 1530.0027,938.1083 C1530.0027,938.1083 1650.2253,938.1083 1650.2253,928.1083" fill="none" style="stroke:#181818;stroke-width:0.5;"/><text fill="#000000" font-family="sans-serif" font-size="14" lengthAdjust="spacing" textLength="97.9658" x="1419.78" y="955.6434">Neon Postgres</text><text fill="#000000" font-family="sans-serif" font-size="14" lengthAdjust="spacing" textLength="220.4453" x="1419.78" y="972.1317">(accounts, entitlements, archive)</text><text fill="#000000" font-family="sans-serif" font-size="14" lengthAdjust="spacing" textLength="63.6836" x="1419.78" y="988.62">(planned)</text></g><!--entity STRIPE_CHECKOUT--><g class="entity" data-entity="STRIPE_CHECKOUT" data-source-line="39" data-uid="ent0024" id="entity_STRIPE_CHECKOUT"><rect fill="#F1F1F1" height="36.4883" rx="2.5" ry="2.5" style="stroke:#181818;stroke-width:0.5;" width="127.6455" x="1317.18" y="352.4583"/><text fill="#000000" font-family="sans-serif" font-size="14" lengthAdjust="spacing" textLength="107.6455" x="1327.18" y="375.9934">Stripe Checkout</text></g><!--entity STRIPE_EVENTS--><g class="entity" data-entity="STRIPE_EVENTS" data-source-line="40" data-uid="ent0025" id="entity_STRIPE_EVENTS"><rect fill="#F1F1F1" height="36.4883" rx="2.5" ry="2.5" style="stroke:#181818;stroke-width:0.5;" width="107.2881" x="1322.36" y="476.1883"/><text fill="#000000" font-family="sans-serif" font-size="14" lengthAdjust="spacing" textLength="87.2881" x="1332.36" y="499.7234">Stripe Events</text></g><!--entity RUST_GEN--><g class="entity" data-entity="RUST_GEN" data-source-line="44" data-uid="ent0027" id="entity_RUST_GEN"><rect fill="#F1F1F1" height="36.4883" rx="2.5" ry="2.5" style="stroke:#181818;stroke-width:0.5;" width="147.6338" x="23.18" y="939.0983"/><text fill="#000000" font-family="sans-serif" font-size="14" lengthAdjust="spacing" textLength="127.6338" x="33.18" y="962.6334">Rust Generator API</text></g><!--entity GEN_CACHE--><g class="entity" data-entity="GEN_CACHE" data-source-line="45" data-uid="ent0028" id="entity_GEN_CACHE"><rect fill="#F1F1F1" height="52.9766" rx="2.5" ry="2.5" style="stroke:#181818;stroke-width:0.5;" width="141.9121" x="52.04" y="1075.5683"/><text fill="#000000" font-family="sans-serif" font-size="14" lengthAdjust="spacing" textLength="121.9121" x="62.04" y="1099.1034">In-memory Cache</text><text fill="#000000" font-family="sans-serif" font-size="14" lengthAdjust="spacing" textLength="65.0986" x="62.04" y="1115.5917">(48h TTL)</text></g><!--entity GEN_CRON--><g class="entity" data-entity="GEN_CRON" data-source-line="46" data-uid="ent0029" id="entity_GEN_CRON"><rect fill="#F1F1F1" height="52.9766" rx="2.5" ry="2.5" style="stroke:#181818;stroke-width:0.5;" width="145.2891" x="70.36" y="765.1283"/><text fill="#000000" font-family="sans-serif" font-size="14" lengthAdjust="spacing" textLength="125.2891" x="80.36" y="788.6634">Pre-gen Scheduler</text><text fill="#000000" font-family="sans-serif" font-size="14" lengthAdjust="spacing" textLength="71.9072" x="80.36" y="805.1517">(10 PM ET)</text></g><!--entity SNAPSHOT--><g class="entity" data-entity="SNAPSHOT" data-source-line="50" data-uid="ent0031" id="entity_SNAPSHOT"><rect fill="#F1F1F1" height="52.9766" rx="2.5" ry="2.5" style="stroke:#181818;stroke-width:0.5;" width="108.6279" x="1885.69" y="765.1283"/><text fill="#000000" font-family="sans-serif" font-size="14" lengthAdjust="spacing" textLength="85.0186" x="1895.69" y="788.6634">Leaderboard</text><text fill="#000000" font-family="sans-serif" font-size="14" lengthAdjust="spacing" textLength="88.6279" x="1895.69" y="805.1517">Snapshot Job</text></g><!--entity P--><g class="entity" data-entity="P" data-source-line="8" data-uid="ent0002" id="entity_P"><ellipse cx="423.9997" cy="51.4883" fill="#F1F1F1" rx="8" ry="8" style="stroke:#181818;stroke-width:0.5;"/><path d="M423.9997,59.4883 L423.9997,86.4883 M410.9997,67.4883 L436.9997,67.4883 M423.9997,86.4883 L410.9997,101.4883 M423.9997,86.4883 L436.9997,101.4883" fill="none" style="stroke:#181818;stroke-width:0.5;"/><text fill="#000000" font-family="sans-serif" font-size="14" lengthAdjust="spacing" textLength="40.3594" x="403.82" y="116.5234">Player</text></g><g class="entity" data-entity="GMN59" data-source-line="88" data-uid="ent0060" id="entity_GMN59"><path d="M2179.64,929.3783 L2179.64,985.3099 L2432.3675,985.3099 L2432.3675,939.3783 L2422.3675,929.3783 L2179.64,929.3783" fill="#FEFFDD" style="stroke:#181818;stroke-width:0.5;"/><path d="M2422.3675,929.3783 L2422.3675,939.3783 L2432.3675,939.3783 L2422.3675,929.3783" fill="#FEFFDD" style="stroke:#181818;stroke-width:1;"/><text fill="#000000" font-family="sans-serif" font-size="13" lengthAdjust="spacing" textLength="231.7275" x="2185.64" y="946.9466">Upstash Redis is the KV cache today.</text><text fill="#000000" font-family="sans-serif" font-size="13" lengthAdjust="spacing" textLength="206.9209" x="2185.64" y="962.2572">Daily puzzles stored with no TTL</text><text fill="#000000" font-family="sans-serif" font-size="13" lengthAdjust="spacing" textLength="158.5137" x="2185.64" y="977.5677">for the all-time calendar.</text></g><g class="entity" data-entity="GMN62" data-source-line="94" data-uid="ent0063" id="entity_GMN62"><path d="M1877.48,937.0283 L1877.48,977.6494 L2144.5152,977.6494 L2144.5152,947.0283 L2134.5152,937.0283 L1877.48,937.0283" fill="#FEFFDD" style="stroke:#181818;stroke-width:0.5;"/><path d="M2134.5152,937.0283 L2134.5152,947.0283 L2144.5152,947.0283 L2134.5152,937.0283" fill="#FEFFDD" style="stroke:#181818;stroke-width:1;"/><text fill="#000000" font-family="sans-serif" font-size="13" lengthAdjust="spacing" textLength="246.0352" x="1883.48" y="954.5966">Daily global leaderboard (separate DB).</text><text fill="#000000" font-family="sans-serif" font-size="13" lengthAdjust="spacing" textLength="169.5396" x="1883.48" y="969.9072">Writes replicate to regions.</text></g><g class="entity" data-entity="GMN65" data-source-line="99" data-uid="ent0066" id="entity_GMN65"><path d="M257.72,1081.7483 L257.72,1098.0583 L194.46,1102.0583 L257.72,1106.0583 L257.72,1122.3694 A0,0 0 0 0 257.72,1122.3694 L528.2781,1122.3694 A0,0 0 0 0 528.2781,1122.3694 L528.2781,1091.7483 L518.2781,1081.7483 L257.72,1081.7483 A0,0 0 0 0 257.72,1081.7483" fill="#FEFFDD" style="stroke:#181818;stroke-width:0.5;"/><path d="M518.2781,1081.7483 L518.2781,1091.7483 L528.2781,1091.7483 L518.2781,1081.7483" fill="#FEFFDD" style="stroke:#181818;stroke-width:0.5;"/><text fill="#000000" font-family="sans-serif" font-size="13" lengthAdjust="spacing" textLength="249.5581" x="263.72" y="1099.3166">Fly.io pre-gen warms in-memory cache</text><text fill="#000000" font-family="sans-serif" font-size="13" lengthAdjust="spacing" textLength="236.6152" x="263.72" y="1114.6272">1 hour before Vercel cron (10 PM ET).</text></g><g class="entity" data-entity="GMN68" data-source-line="104" data-uid="ent0069" id="entity_GMN68"><path d="M1861.85,618.8583 L1861.85,659.4794 L2190.1591,659.4794 L2190.1591,628.8583 L2180.1591,618.8583 L1861.85,618.8583" fill="#FEFFDD" style="stroke:#181818;stroke-width:0.5;"/><path d="M2180.1591,618.8583 L2180.1591,628.8583 L2190.1591,628.8583 L2180.1591,618.8583" fill="#FEFFDD" style="stroke:#181818;stroke-width:1;"/><text fill="#000000" font-family="sans-serif" font-size="13" lengthAdjust="spacing" textLength="273.7427" x="1867.85" y="636.4266">Calendar can read from Postgres (planned).</text><text fill="#000000" font-family="sans-serif" font-size="13" lengthAdjust="spacing" textLength="307.3091" x="1867.85" y="651.7372">If desired, recent days can be served from Redis.</text></g><g class="entity" data-entity="GMN71" data-source-line="109" data-uid="ent0072" id="entity_GMN71"><path d="M2224.73,611.1983 L2224.73,667.1299 L2375.2666,667.1299 L2375.2666,621.1983 L2365.2666,611.1983 L2224.73,611.1983" fill="#FEFFDD" style="stroke:#181818;stroke-width:0.5;"/><path d="M2365.2666,611.1983 L2365.2666,621.1983 L2375.2666,621.1983 L2365.2666,611.1983" fill="#FEFFDD" style="stroke:#181818;stroke-width:1;"/><text fill="#000000" font-family="sans-serif" font-size="13" lengthAdjust="spacing" textLength="129.5366" x="2230.73" y="628.7666">JWT session strategy</text><text fill="#000000" font-family="sans-serif" font-size="13" lengthAdjust="spacing" textLength="101.5181" x="2230.73" y="644.0772">HttpOnly cookie</text><text fill="#000000" font-family="sans-serif" font-size="13" lengthAdjust="spacing" textLength="101.8354" x="2230.73" y="659.3877">10-day maxAge</text></g><!--link P to UI--><g class="link" data-entity-1="P" data-entity-2="UI" data-source-line="53" data-uid="lnk32" id="link_P_UI"><path d="M424,119.8883 C424,145.5083 424,172.7583 424,195.3583" fill="none" id="P-to-UI" style="stroke:#181818;stroke-width:1;"/><polygon fill="#181818" points="424,201.3583,428,192.3583,424,196.3583,420,192.3583,424,201.3583" style="stroke:#181818;stroke-width:1;"/></g><!--link UI to DAILY_API--><g class="link" data-entity-1="UI" data-entity-2="DAILY_API" data-source-line="54" data-uid="lnk33" id="link_UI_DAILY_API"><path d="M482.82,236.3683 C557.42,246.9483 689.19,269.6583 796,309.4583 C899.95,348.1883 921.78,369.0683 1015,429.1883 C1097.28,482.2483 1098.59,529.3383 1191,561.6783 C1251.01,582.6783 1417.68,546.8083 1477,569.6783 C1499.86,578.4883 1516.5828,592.4833 1531.2628,607.9733" fill="none" id="UI-to-DAILY_API" style="stroke:#181818;stroke-width:1;"/><polygon fill="#181818" points="1535.39,612.3283,1532.1024,603.0443,1531.9506,608.6991,1526.2958,608.5473,1535.39,612.3283" style="stroke:#181818;stroke-width:1;"/><text fill="#000000" font-family="sans-serif" font-size="13" lengthAdjust="spacing" textLength="111.6616" x="1039.98" y="442.7566">fetch daily puzzle</text></g><!--link UI to RUST_GEN--><g class="link" data-entity-1="UI" data-entity-2="RUST_GEN" data-source-line="55" data-uid="lnk34" id="link_UI_RUST_GEN"><path d="M465.81,254.7283 C475.55,262.9283 484.63,272.9183 490,284.4583 C504.94,316.5383 562.41,275.1883 476,421.1883 C358.48,619.7383 158.77,517.0783 53,722.1283 C14.88,796.0383 60.8016,893.037 83.5616,933.557" fill="none" id="UI-to-RUST_GEN" style="stroke:#181818;stroke-width:1;"/><polygon fill="#181818" points="86.5,938.7883,85.5799,928.9825,84.0514,934.4289,78.6049,932.9003,86.5,938.7883" style="stroke:#181818;stroke-width:1;"/><text fill="#000000" font-family="sans-serif" font-size="13" lengthAdjust="spacing" textLength="116.105" x="329.86" y="558.2466">fallback if KV miss</text></g><!--link UI to WASM--><g class="link" data-entity-1="UI" data-entity-2="WASM" data-source-line="56" data-uid="lnk35" id="link_UI_WASM"><path d="M385.93,254.6883 C376.7,263.0083 368.04,273.0683 363,284.4583 C354.4,303.8983 360.082,321.5643 370.152,338.7143" fill="none" id="UI-to-WASM" style="stroke:#181818;stroke-width:1;"/><polygon fill="#181818" points="373.19,343.8883,372.0823,334.1019,370.6583,339.5766,365.1836,338.1526,373.19,343.8883" style="stroke:#181818;stroke-width:1;"/><text fill="#000000" font-family="sans-serif" font-size="13" lengthAdjust="spacing" textLength="121.0371" x="364" y="298.0266">fallback generation</text></g><!--link UI to DAILY_CACHE_API--><g class="link" data-entity-1="UI" data-entity-2="DAILY_CACHE_API" data-source-line="57" data-uid="lnk36" id="link_UI_DAILY_CACHE_API"><path d="M482.95,238.3483 C551.99,249.3483 669.81,268.1483 771,284.4583 C839.46,295.4883 859.09,287.8983 925,309.4583 C1036.41,345.8883 1060.77,366.7983 1160,429.1883 C1226.71,471.1283 1227.67,507.8383 1301,536.6783 C1440.65,591.5883 1495.54,519.6183 1637,569.6783 C1663.9,579.1983 1685.9539,593.4505 1705.6139,608.5705" fill="none" id="UI-to-DAILY_CACHE_API" style="stroke:#181818;stroke-width:1;"/><polygon fill="#181818" points="1710.37,612.2283,1705.6744,603.5709,1706.4066,609.1801,1700.7973,609.9123,1710.37,612.2283" style="stroke:#181818;stroke-width:1;"/><text fill="#000000" font-family="sans-serif" font-size="13" lengthAdjust="spacing" textLength="66.771" x="1184.11" y="442.7566">backfill KV</text></g><!--link UI to LB_API--><g class="link" data-entity-1="UI" data-entity-2="LB_API" data-source-line="58" data-uid="lnk37" id="link_UI_LB_API"><path d="M482.87,244.3283 C510.79,253.3083 543.7,266.4683 570,284.4583 C649.93,339.1183 642.39,383.2683 716,446.1883 C787.4,507.2183 803.87,532.0383 893,561.6783 C945.83,579.2383 966.24,549.1883 1018,569.6783 C1041.1,578.8183 1058.3546,592.7084 1073.6846,608.0184" fill="none" id="UI-to-LB_API" style="stroke:#181818;stroke-width:1;"/><polygon fill="#181818" points="1077.93,612.2583,1074.3885,603.0682,1074.3922,608.7251,1068.7353,608.7287,1077.93,612.2583" style="stroke:#181818;stroke-width:1;"/><text fill="#000000" font-family="sans-serif" font-size="13" lengthAdjust="spacing" textLength="158.2598" x="717" y="442.7566">submit/read leaderboard</text></g><!--link UI to ARCHIVE_API--><g class="link" data-entity-1="UI" data-entity-2="ARCHIVE_API" data-source-line="59" data-uid="lnk38" id="link_UI_ARCHIVE_API"><path d="M483.03,243.4383 C534.35,257.1083 609.99,279.8983 672,309.4583 C768.29,355.3483 792.57,368.0783 880,429.1883 C955.11,481.6883 952.29,529.2283 1038,561.6783 C1070.02,573.7983 1314.72,555.7583 1346,569.6783 C1366.07,578.6083 1379.3535,592.1482 1390.8735,607.5982" fill="none" id="UI-to-ARCHIVE_API" style="stroke:#181818;stroke-width:1;"/><polygon fill="#181818" points="1394.46,612.4083,1392.2869,602.8022,1391.4712,608.3999,1385.8735,607.5842,1394.46,612.4083" style="stroke:#181818;stroke-width:1;"/><text fill="#000000" font-family="sans-serif" font-size="13" lengthAdjust="spacing" textLength="103.8159" x="902.76" y="442.7566">calendar/history</text></g><!--link UI to AUTH--><g class="link" data-entity-1="UI" data-entity-2="AUTH" data-source-line="60" data-uid="lnk39" id="link_UI_AUTH"><path d="M482.99,246.3083 C503,254.8683 523.85,267.1683 538,284.4583 C585.04,341.9283 560.78,374.4483 580,446.1883 C595.97,505.8083 613.8203,569.841 624.1403,606.651" fill="none" id="UI-to-AUTH" style="stroke:#181818;stroke-width:1;"/><polygon fill="#181818" points="625.76,612.4283,627.1819,602.6826,624.4102,607.6139,619.479,604.8422,625.76,612.4283" style="stroke:#181818;stroke-width:1;"/><text fill="#000000" font-family="sans-serif" font-size="13" lengthAdjust="spacing" textLength="94.4404" x="581" y="442.7566">sign-in / claim</text></g><!--link UI to STRIPE_CHECKOUT--><g class="link" data-entity-1="UI" data-entity-2="STRIPE_CHECKOUT" data-source-line="61" data-uid="lnk40" id="link_UI_STRIPE_CHECKOUT"><path d="M482.93,229.2983 C646.14,230.7883 1101.36,239.0083 1243,284.4583 C1288.58,299.0783 1329.7788,328.1502 1355.4788,348.5302" fill="none" id="UI-to-STRIPE_CHECKOUT" style="stroke:#181818;stroke-width:1;"/><polygon fill="#181818" points="1360.18,352.2583,1355.6135,343.532,1356.2623,349.1516,1350.6428,349.8003,1360.18,352.2583" style="stroke:#181818;stroke-width:1;"/><text fill="#000000" font-family="sans-serif" font-size="13" lengthAdjust="spacing" textLength="106.4121" x="1280.73" y="298.0266">purchase archive</text></g><!--link AUTH to GOOGLE--><g class="link" data-entity-1="AUTH" data-entity-2="GOOGLE" data-source-line="63" data-uid="lnk41" id="link_AUTH_GOOGLE"><path d="M604.81,666.0283 C571.47,696.6083 521.3109,742.6217 492.5509,769.0117" fill="none" id="AUTH-to-GOOGLE" style="stroke:#181818;stroke-width:1;"/><polygon fill="#181818" points="488.13,773.0683,497.4657,769.9307,491.8141,769.6878,492.0569,764.0362,488.13,773.0683" style="stroke:#181818;stroke-width:1;"/></g><!--link AUTH to APPLE--><g class="link" data-entity-1="AUTH" data-entity-2="APPLE" data-source-line="64" data-uid="lnk42" id="link_AUTH_APPLE"><path d="M579,651.4883 C529.23,663.5983 454.71,686.0983 398,722.1283 C376.52,735.7783 360.5534,752.9133 348.1534,768.2433" fill="none" id="AUTH-to-APPLE" style="stroke:#181818;stroke-width:1;"/><polygon fill="#181818" points="344.38,772.9083,353.15,768.4264,347.5245,769.0208,346.9301,763.3953,344.38,772.9083" style="stroke:#181818;stroke-width:1;"/></g><!--link DAILY_API to REDIS_KV--><g class="link" data-entity-1="DAILY_API" data-entity-2="REDIS_KV" data-source-line="66" data-uid="lnk43" id="link_DAILY_API_REDIS_KV"><path d="M1619.93,662.9683 C1625.65,664.5583 1631.4,665.9783 1637,667.1283 C1764.69,693.3183 2134.53,624.5883 2221,722.1283 C2256.37,762.0283 2256.49,802.3083 2221,842.1083 C2188.54,878.4983 2051.59,862.9683 2003,867.1083 C1971.29,869.8083 1889.57,863.3283 1860,875.1083 C1836.67,884.3983 1819.2487,897.5731 1802.3787,913.8431" fill="none" id="DAILY_API-to-REDIS_KV" style="stroke:#181818;stroke-width:1;"/><polygon fill="#181818" points="1798.06,918.0083,1807.3149,914.6397,1801.659,914.5373,1801.7614,908.8814,1798.06,918.0083" style="stroke:#181818;stroke-width:1;"/><text fill="#000000" font-family="sans-serif" font-size="13" lengthAdjust="spacing" textLength="110.9634" x="2248.57" y="796.6866">GET puzzle:{date}</text></g><!--link DAILY_CACHE_API to REDIS_KV--><g class="link" data-entity-1="DAILY_CACHE_API" data-entity-2="REDIS_KV" data-source-line="67" data-uid="lnk44" id="link_DAILY_CACHE_API_REDIS_KV"><path d="M1827.57,664.1283 C1833.1,665.2583 1838.61,666.2783 1844,667.1283 C1909.79,677.5983 2400.4,669.3183 2441,722.1283 C2473.5,764.4083 2473.5,799.8283 2441,842.1083 C2414.65,876.3783 2389.82,861.1483 2347,867.1083 C2320.2,870.8383 1885.33,865.5883 1860,875.1083 C1836.29,884.0083 1818.6544,897.3381 1801.7544,913.8281" fill="none" id="DAILY_CACHE_API-to-REDIS_KV" style="stroke:#181818;stroke-width:1;"/><polygon fill="#181818" points="1797.46,918.0183,1806.6951,914.5959,1801.0387,914.5264,1801.1081,908.87,1797.46,918.0183" style="stroke:#181818;stroke-width:1;"/><text fill="#000000" font-family="sans-serif" font-size="13" lengthAdjust="spacing" textLength="130.4253" x="2466.38" y="796.6866">SET NX puzzle:{date}</text></g><!--link CRON_API to RUST_GEN--><g class="link" data-entity-1="CRON_API" data-entity-2="RUST_GEN" data-source-line="68" data-uid="lnk45" id="link_CRON_API_RUST_GEN"><path d="M616.86,818.5883 C591.99,826.4083 564.43,834.8483 539,842.1083 C409.82,879.0083 263.7674,915.6896 175.8674,937.2396" fill="none" id="CRON_API-to-RUST_GEN" style="stroke:#181818;stroke-width:1;"/><polygon fill="#181818" points="170.04,938.6683,179.7336,940.4102,174.8962,937.4777,177.8287,932.6403,170.04,938.6683" style="stroke:#181818;stroke-width:1;"/><text fill="#000000" font-family="sans-serif" font-size="13" lengthAdjust="spacing" textLength="162.8047" x="504.39" y="863.6766">generate today/tomorrow</text></g><!--link CRON_API to REDIS_KV--><g class="link" data-entity-1="CRON_API" data-entity-2="REDIS_KV" data-source-line="69" data-uid="lnk46" id="link_CRON_API_REDIS_KV"><path d="M747.18,818.5083 C767.91,827.8583 792.55,837.2983 816,842.1083 C899.6,859.2483 1500.83,830.9983 1584,850.1083 C1601.25,854.0683 1603.11,861.8283 1620,867.1083 C1640.64,873.5683 1648.37,866.0183 1668,875.1083 C1690.19,885.3783 1706.9573,898.1205 1723.7273,913.8005" fill="none" id="CRON_API-to-REDIS_KV" style="stroke:#181818;stroke-width:1;"/><polygon fill="#181818" points="1728.11,917.8983,1724.2679,908.8298,1724.4578,914.4834,1718.8041,914.6733,1728.11,917.8983" style="stroke:#181818;stroke-width:1;"/><text fill="#000000" font-family="sans-serif" font-size="13" lengthAdjust="spacing" textLength="164.6772" x="1621" y="863.6766">SET puzzle:{date} (no TTL)</text></g><!--link VERCEL_CRON to CRON_API--><g class="link" data-entity-1="VERCEL_CRON" data-entity-2="CRON_API" data-source-line="70" data-uid="lnk47" id="link_VERCEL_CRON_CRON_API"><path d="M757.74,665.9083 C752.76,675.6683 747.07,686.8883 742,697.1283 C730.73,719.8883 720.8003,740.5214 711.8403,759.3314" fill="none" id="VERCEL_CRON-to-CRON_API" style="stroke:#181818;stroke-width:1;"/><polygon fill="#181818" points="709.26,764.7483,716.7416,758.3432,711.4102,760.2342,709.5192,754.9028,709.26,764.7483" style="stroke:#181818;stroke-width:1;"/><text fill="#000000" font-family="sans-serif" font-size="13" lengthAdjust="spacing" textLength="89.4956" x="743" y="710.6966">scheduled call</text></g><!--link GEN_CRON to RUST_GEN--><g class="link" data-entity-1="GEN_CRON" data-entity-2="RUST_GEN" data-source-line="72" data-uid="lnk48" id="link_GEN_CRON_RUST_GEN"><path d="M135.71,818.5583 C126.24,852.2783 111.5726,904.4819 103.4826,933.2819" fill="none" id="GEN_CRON-to-RUST_GEN" style="stroke:#181818;stroke-width:1;"/><polygon fill="#181818" points="101.86,939.0583,108.1449,931.4754,103.2122,934.2446,100.443,929.3119,101.86,939.0583" style="stroke:#181818;stroke-width:1;"/><text fill="#000000" font-family="sans-serif" font-size="13" lengthAdjust="spacing" textLength="149.6968" x="127.81" y="863.6766">precompute daily seeds</text></g><!--link RUST_GEN to GEN_CACHE--><g class="link" data-entity-1="RUST_GEN" data-entity-2="GEN_CACHE" data-source-line="73" data-uid="lnk49" id="link_RUST_GEN_GEN_CACHE"><path d="M100.19,975.8383 C104.72,1000.6983 111.9633,1040.5157 117.2133,1069.2957" fill="none" id="RUST_GEN-to-GEN_CACHE" style="stroke:#181818;stroke-width:1;"/><polygon fill="#181818" points="118.29,1075.1983,120.61,1065.6266,117.3927,1070.2795,112.7398,1067.0622,118.29,1075.1983" style="stroke:#181818;stroke-width:1;"/><text fill="#000000" font-family="sans-serif" font-size="13" lengthAdjust="spacing" textLength="166.937" x="113.33" y="1042.1366">read/write cached puzzles</text></g><!--link LB_API to REDIS_LB--><g class="link" data-entity-1="LB_API" data-entity-2="REDIS_LB" data-source-line="75" data-uid="lnk50" id="link_LB_API_REDIS_LB"><path d="M1035.17,663.2183 C973.64,685.0783 890.54,715.5383 886,722.1283 C855.75,766.0383 853.79,799.6083 886,842.1083 C925.12,893.7183 1097.8307,927.55 1205.0107,944.15" fill="none" id="LB_API-to-REDIS_LB" style="stroke:#181818;stroke-width:1;"/><polygon fill="#181818" points="1210.94,945.0683,1202.6583,939.7379,1205.9989,944.303,1201.4338,947.6437,1210.94,945.0683" style="stroke:#181818;stroke-width:1;"/><text fill="#000000" font-family="sans-serif" font-size="13" lengthAdjust="spacing" textLength="199.1133" x="887" y="796.6866">zadd/zrange (lb:YYYY-MM-DD)</text></g><!--link LB_API to DB--><g class="link" data-entity-1="LB_API" data-entity-2="DB" data-source-line="76" data-uid="lnk51" id="link_LB_API_DB"><path d="M1099.87,666.1383 C1099.51,709.7083 1105.71,797.1283 1157,842.1083 C1196.65,876.8783 1342.21,857.7283 1392,875.1083 C1421.27,885.3183 1446.1623,898.8203 1470.6523,914.4503" fill="none" id="LB_API-to-DB" style="stroke:#181818;stroke-width:1;"/><polygon fill="#181818" points="1475.71,917.6783,1470.2754,909.4646,1471.4952,914.9883,1465.9715,916.2082,1475.71,917.6783" style="stroke:#181818;stroke-width:1;"/><text fill="#000000" font-family="sans-serif" font-size="13" lengthAdjust="spacing" textLength="114.4546" x="1158" y="796.6866">snapshots/history</text></g><!--link ARCHIVE_API to DB--><g class="link" data-entity-1="ARCHIVE_API" data-entity-2="DB" data-source-line="77" data-uid="lnk52" id="link_ARCHIVE_API_DB"><path d="M1459.49,661.7883 C1465.31,663.8383 1471.24,665.6883 1477,667.1283 C1592.51,696.0483 1930.24,633.7183 2010,722.1283 C2045.72,761.7183 2045.47,802.2983 2010,842.1083 C1959.21,899.1183 1740.99,852.7083 1668,875.1083 C1637.7,884.4083 1612.0434,898.2471 1587.3334,914.3871" fill="none" id="ARCHIVE_API-to-DB" style="stroke:#181818;stroke-width:1;"/><polygon fill="#181818" points="1582.31,917.6683,1592.0325,916.0955,1586.4961,914.934,1587.6576,909.3977,1582.31,917.6683" style="stroke:#181818;stroke-width:1;"/><text fill="#000000" font-family="sans-serif" font-size="13" lengthAdjust="spacing" textLength="174.1162" x="2037.7" y="796.6866">historical puzzles (planned)</text></g><!--link ARCHIVE_API to REDIS_KV--><g class="link" data-entity-1="ARCHIVE_API" data-entity-2="REDIS_KV" data-source-line="78" data-uid="lnk53" id="link_ARCHIVE_API_REDIS_KV"><path d="M1445.83,666.0983 C1505.41,709.1983 1632.09,795.4483 1752,842.1083 C1768.08,848.3683 1779.13,836.7083 1790,850.1083 C1805.37,869.0583 1801.3348,890.3288 1790.9348,912.2188" fill="none" id="ARCHIVE_API-to-REDIS_KV" style="stroke:#181818;stroke-width:1;stroke-dasharray:7,7;"/><polygon fill="#181818" points="1788.36,917.6383,1795.8352,911.2256,1790.5057,913.1221,1788.6092,907.7926,1788.36,917.6383" style="stroke:#181818;stroke-width:1;"/><text fill="#000000" font-family="sans-serif" font-size="13" lengthAdjust="spacing" textLength="116.7271" x="1753" y="796.6866">optional hot cache</text></g><!--link STRIPE_CHECKOUT to STRIPE_EVENTS--><g class="link" data-entity-1="STRIPE_CHECKOUT" data-entity-2="STRIPE_EVENTS" data-source-line="80" data-uid="lnk54" id="link_STRIPE_CHECKOUT_STRIPE_EVENTS"><path d="M1380.27,389.3983 C1379.32,412.4783 1377.9267,446.6234 1376.9767,469.7134" fill="none" id="STRIPE_CHECKOUT-to-STRIPE_EVENTS" style="stroke:#181818;stroke-width:1;"/><polygon fill="#181818" points="1376.73,475.7083,1381.0966,466.8803,1376.9355,470.7125,1373.1034,466.5515,1376.73,475.7083" style="stroke:#181818;stroke-width:1;"/></g><!--link STRIPE_EVENTS to STRIPE_WEBHOOK--><g class="link" data-entity-1="STRIPE_EVENTS" data-entity-2="STRIPE_WEBHOOK" data-source-line="81" data-uid="lnk55" id="link_STRIPE_EVENTS_STRIPE_WEBHOOK"><path d="M1362.39,512.9383 C1343.05,537.7983 1311.1832,578.7818 1288.8032,607.5618" fill="none" id="STRIPE_EVENTS-to-STRIPE_WEBHOOK" style="stroke:#181818;stroke-width:1;"/><polygon fill="#181818" points="1285.12,612.2983,1293.8024,607.649,1288.1893,608.3512,1287.4871,602.7381,1285.12,612.2983" style="stroke:#181818;stroke-width:1;"/></g><!--link STRIPE_WEBHOOK to DB--><g class="link" data-entity-1="STRIPE_WEBHOOK" data-entity-2="DB" data-source-line="82" data-uid="lnk56" id="link_STRIPE_WEBHOOK_DB"><path d="M1268.24,665.9783 C1275.57,713.2583 1297.95,813.8083 1360,867.1083 C1371.12,876.6583 1378.43,869.5583 1392,875.1083 C1419.79,886.4783 1443.5915,899.5552 1467.7215,914.5252" fill="none" id="STRIPE_WEBHOOK-to-DB" style="stroke:#181818;stroke-width:1;"/><polygon fill="#181818" points="1472.82,917.6883,1467.2809,909.5447,1468.5712,915.0524,1463.0635,916.3427,1472.82,917.6883" style="stroke:#181818;stroke-width:1;"/><text fill="#000000" font-family="sans-serif" font-size="13" lengthAdjust="spacing" textLength="150.9282" x="1335.9" y="796.6866">entitlements, purchases</text></g><!--link SNAPSHOT to REDIS_LB--><g class="link" data-entity-1="SNAPSHOT" data-entity-2="REDIS_LB" data-source-line="84" data-uid="lnk57" id="link_SNAPSHOT_REDIS_LB"><path d="M1899.62,818.4183 C1882.79,827.7583 1862.63,837.2083 1843,842.1083 C1818.85,848.1383 1417.81,840.1483 1395,850.1083 C1363.02,864.0783 1339.7276,888.539 1321.6076,912.829" fill="none" id="SNAPSHOT-to-REDIS_LB" style="stroke:#181818;stroke-width:1;"/><polygon fill="#181818" points="1318.02,917.6383,1326.6076,912.8162,1321.0097,913.6306,1320.1953,908.0327,1318.02,917.6383" style="stroke:#181818;stroke-width:1;"/><text fill="#000000" font-family="sans-serif" font-size="13" lengthAdjust="spacing" textLength="66.7837" x="1396" y="863.6766">read top N</text></g><!--link SNAPSHOT to DB--><g class="link" data-entity-1="SNAPSHOT" data-entity-2="DB" data-source-line="85" data-uid="lnk58" id="link_SNAPSHOT_DB"><path d="M1899.61,818.3783 C1882.78,827.7083 1862.62,837.1683 1843,842.1083 C1823.39,847.0483 1493.14,835.6483 1479,850.1083 C1460.54,868.9683 1469.8989,891.1075 1487.4289,913.0875" fill="none" id="SNAPSHOT-to-DB" style="stroke:#181818;stroke-width:1;"/><polygon fill="#181818" points="1491.17,917.7783,1488.6855,908.2479,1488.0524,913.8693,1482.4311,913.2361,1491.17,917.7783" style="stroke:#181818;stroke-width:1;"/><text fill="#000000" font-family="sans-serif" font-size="13" lengthAdjust="spacing" textLength="99.5376" x="1480" y="863.6766">write snapshots</text></g><!--link REDIS_KV to GMN59--><g class="link" data-entity-1="REDIS_KV" data-entity-2="GMN59" data-source-line="88" data-uid="lnk61" id="link_REDIS_KV_GMN59"><path d="M1796.31,917.7783 C1816.93,895.7783 1845.7,870.4983 1877.5,858.6083 C1933.07,837.8183 2087.39,842.5283 2144.5,858.6083 C2193.06,872.2783 2241.45,905.0483 2272.41,929.0983" fill="none" id="REDIS_KV-GMN59" style="stroke:#181818;stroke-width:1;stroke-dasharray:7,7;"/></g><!--link REDIS_LB to GMN62--><g class="link" data-entity-1="REDIS_LB" data-entity-2="GMN62" data-source-line="94" data-uid="lnk64" id="link_REDIS_LB_GMN62"><path d="M1326.37,917.7583 C1347.61,895.7483 1377.14,870.4783 1409.5,858.6083 C1454.46,842.1183 1794.25,846.1783 1840.5,858.6083 C1896.82,873.7383 1953.75,912.5083 1985.5,936.7183" fill="none" id="REDIS_LB-GMN62" style="stroke:#181818;stroke-width:1;stroke-dasharray:7,7;"/></g><!--link ARCHIVE_API to GMN68--><g class="link" data-entity-1="ARCHIVE_API" data-entity-2="GMN68" data-source-line="104" data-uid="lnk70" id="link_ARCHIVE_API_GMN68"><path d="M1427.76,612.2383 C1442.44,591.5083 1465.88,564.5383 1494.5,553.1783 C1562.86,526.0283 1753.45,538.3783 1825.5,553.1783 C1886.16,565.6383 1951.12,597.2583 1990.15,618.4783" fill="none" id="ARCHIVE_API-GMN68" style="stroke:#181818;stroke-width:1;stroke-dasharray:7,7;"/></g><!--link AUTH to GMN71--><g class="link" data-entity-1="AUTH" data-entity-2="GMN71" data-source-line="109" data-uid="lnk73" id="link_AUTH_GMN71"><path d="M651.23,612.4083 C667.06,591.7883 692.03,564.8783 721.5,553.1783 C759.42,538.1183 2151.93,539.8483 2190.5,553.1783 C2223.4,564.5483 2253.93,590.3383 2274.35,610.7183" fill="none" id="AUTH-GMN71" style="stroke:#181818;stroke-width:1;stroke-dasharray:7,7;"/></g><!--SRC=[VLPXRzis4FtENt78liHORJVRW0tzC42MDSUDOmkMdQn0W82MQ8kB90eatTGf-jzt92LPKfAwGHgQxnrvZ- -Er5nd36xf2_xsP9nopM9zb0mk_QEKhD3mAuGPBGgM38XwuaL99SqX5daf2foEz0cP4acqE6Ii1L4fJSGpBmwmfvbgp-ne_7IGubWaliY4X5_-iPyMeeat4J9XieBzRZzlmbv5_DFy8uJ66eUOm8b9e0f2GXeINFWPDnbUJgHuLamEBWp4Nyo3vGQ-4pXd2HTBzasF_bEmdJyKbs5A4GupcZF7sSwxw7ilkeKPAvYak3uoK8BCfEtWPfhyw6pbZicOPNRsBbZxmUAz3NZX7DRYg9coO1nsSLFAinFuD4wPcNmePi46nhJauyJCMDBKco- -FFwKQXJTyonxAC9Lr0umZiryAupl-TV1ws2-54Kj0Mlj8iRlnuVgUoVuUhLypNU2W0c3-brTGNWBmMRGKkZH4BiaxwXJ8z9gFlMHLLR6TKfjDzTTTAGbBndSirqgn5CV7stMyp1ul0ycrwlLJPUvO1HjkHDK9axaBdKnUPsFBQwlx2suj_QlvtTEmwuhWc-QoO9cC4ym2DVk-4nsVNlCX30CCsKnizLgjWXwMoZBDiGBGqHq5vnIJI52prRscdeRpowLuCGENGyNsr9fgb9OiuGhJCMv9Zo-c1PYpJCmtqxWocMt3gRpwF7cxlqWCCl4ZcPDh9QwLQZVsg4Maqwe9KEZXKBf0suQuJIEiH5ezG6iP1dBcHrHTm23llhJIK-3a9uinSw6tfU-r9Lj_9J5JrY8RRDW9VWtg-tcJKBmjObQmOCxx3HHR_ccRS3bFzbfn8NRvYnOzZUoFYfzxZB6MKwbRRHvH7WNF2-6ESk5h0eSLVZZhnGscqKJtbLobnLADiHYXGWfoJ5ZffTTVMpNeYMQGknciIhL-BFOAUYA_NarYVffj8xxeOWAMgfKQ42oashfXT7rQcFYXp0S_csQxNPk_shw67o2FTDn2hP5GMdDMADgFGoeQiF0zt1p1pbNgaRPbjr2L2sAYwAxMjFk4BohcYJ6ga6kz75E7NSvrsE9oK5sph36jMeUmJ7DM95GEKwvmgCyDIZiMIOMFnH3Ni0Ouepol9xjcGw1vH5DRggYCZiXDe81LmsX6Rlg9sS9hLHLhM8eqx2TZf- -Ox6n7wIVVuyG8M7vRuzJz_R-GTGN06YHqDDO2tGcNi8zV3Tu9p9S5iAwbxGk0yjgGg1kbMiJ8t16IEtL_cvAD2xw4I_Loa2AiKIH1c7rgmi4yUPGnyyItqfWRyEasfiYf3h_y_ON4oIyq2GPlqYi3NnOPRjFN_0plBqTJgU3DcDgiAgg0DMOeUsL1kOcEIPMBtukjGvZDEeeAKhZQMIP8hEx9wHlf9QvgXRL6RNdw-knEpnlizk3Qt-YK7LTzwMo1QD52Sikn4PpcZSA4L8874j-I3M8_VcgwLul-AFnIOFfstoTvqPaskeL2eoQU93FNAVWh4Nss5GD4Rqpr3ndJPcE2Fu7PkstTu0tb0j-i1TRk_xXKZ7pU4NIT38OaNkJaSAiompFqXO43WvuHEhzLSxDsjqGni2sJJzJcME-JQjtvtk5PtsKi6EO48FgOMNUON3kvUylrdwT-9K06BXm9xMN8czktxC3HsI-XuGfZff-CEzqq-bHTMMPEpn39h-oYcvFwISRC0-tp_SRv2Y5mk1H6VqE9tAjTRagKESOtsyS4_qun3KWfz-y0pl7-ny0]--></g></svg>