<svg xmlns="http://www.w3.org/2000/svg" xmlns:xlink="http://www.w3.org/1999/xlink" contentStyleType="text/css" data-diagram-type="DESCRIPTION" height="1119px" preserveAspectRatio="none" style="width:1983px;height:1119px;background:#FFFFFF;" version="1.1" viewBox="0 0 1983 1119" width="1983px" zoomAndPan="magnify"><title>Mazle Architecture (Auth + Stripe + Leaderboard)</title><defs/><g><g class="title" data-source-line="1"><text fill="#000000" font-family="sans-serif" font-size="14" font-weight="bold" lengthAdjust="spacing" textLength="357.8818" x="805.5842" y="23.5352">Mazle Architecture (Auth + Stripe + Leaderboard)</text></g><!--cluster CLIENT--><g class="cluster" data-entity="CLIENT" data-source-line="10" data-uid="ent0003" id="cluster_CLIENT"><rect fill="#F7F7F7" height="246.71" rx="2.5" ry="2.5" style="stroke:#333333;stroke-width:1;" width="190" x="50" y="166.4783"/><text fill="#000000" font-family="sans-serif" font-size="14" font-weight="bold" lengthAdjust="spacing" textLength="115.8281" x="87.0859" y="182.0134">Client (Browser)</text></g><!--cluster VERCEL--><g class="cluster" data-entity="VERCEL" data-source-line="15" data-uid="ent0006" id="cluster_VERCEL"><rect fill="#F7F7F7" height="256.43" rx="2.5" ry="2.5" style="stroke:#333333;stroke-width:1;" width="732" x="544" y="577.6783"/><text fill="#000000" font-family="sans-serif" font-size="14" font-weight="bold" lengthAdjust="spacing" textLength="44.5566" x="887.7217" y="593.2134">Vercel</text></g><!--cluster OIDC--><g class="cluster" data-entity="OIDC" data-source-line="24" data-uid="ent0013" id="cluster_OIDC"><rect fill="#F7F7F7" height="87.48" rx="2.5" ry="2.5" style="stroke:#333333;stroke-width:1;" width="273" x="1300" y="738.3783"/><text fill="#000000" font-family="sans-serif" font-size="14" font-weight="bold" lengthAdjust="spacing" textLength="118.8906" x="1377.0547" y="753.9134">External Identity</text></g><!--cluster DATA--><g class="cluster" data-entity="DATA" data-source-line="29" data-uid="ent0016" id="cluster_DATA"><rect fill="#F7F7F7" height="112.98" rx="2.5" ry="2.5" style="stroke:#333333;stroke-width:1;" width="492" x="903" y="883.1083"/><text fill="#000000" font-family="sans-serif" font-size="14" font-weight="bold" lengthAdjust="spacing" textLength="82.9473" x="1107.5264" y="898.6434">Data Stores</text></g><!--cluster PAY--><g class="cluster" data-entity="PAY" data-source-line="35" data-uid="ent0020" id="cluster_PAY"><rect fill="#F7F7F7" height="211.22" rx="2.5" ry="2.5" style="stroke:#333333;stroke-width:1;" width="160" x="673" y="317.4583"/><text fill="#000000" font-family="sans-serif" font-size="14" font-weight="bold" lengthAdjust="spacing" textLength="69.542" x="718.229" y="332.9934">Payments</text></g><!--cluster GEN--><g class="cluster" data-entity="GEN" data-source-line="40" data-uid="ent0023" id="cluster_GEN"><rect fill="#F7F7F7" height="383.51" rx="2.5" ry="2.5" style="stroke:#333333;stroke-width:1;" width="229" x="7" y="730.1283"/><text fill="#000000" font-family="sans-serif" font-size="14" font-weight="bold" lengthAdjust="spacing" textLength="71.6133" x="85.6934" y="745.6634">Generator</text></g><!--cluster JOBS--><g class="cluster" data-entity="JOBS" data-source-line="46" data-uid="ent0027" id="cluster_JOBS"><rect fill="#F7F7F7" height="103.98" rx="2.5" ry="2.5" style="stroke:#333333;stroke-width:1;" width="140" x="1597" y="730.1283"/><text fill="#000000" font-family="sans-serif" font-size="14" font-weight="bold" lengthAdjust="spacing" textLength="68.626" x="1632.687" y="745.6634">Ops/Jobs</text></g><!--entity UI--><g class="entity" data-entity="UI" data-source-line="11" data-uid="ent0004" id="entity_UI"><rect fill="#F1F1F1" height="52.9766" rx="2.5" ry="2.5" style="stroke:#181818;stroke-width:0.5;" width="117.0771" x="106.46" y="201.4783"/><text fill="#000000" font-family="sans-serif" font-size="14" lengthAdjust="spacing" textLength="65.9531" x="116.46" y="225.0134">Next.js UI</text><text fill="#000000" font-family="sans-serif" font-size="14" lengthAdjust="spacing" textLength="97.0771" x="116.46" y="241.5017">(Phaser Game)</text></g><!--entity WASM--><g class="entity" data-entity="WASM" data-source-line="12" data-uid="ent0005" id="entity_WASM"><rect fill="#F1F1F1" height="52.9766" rx="2.5" ry="2.5" style="stroke:#181818;stroke-width:0.5;" width="133.0938" x="66.45" y="344.2083"/><text fill="#000000" font-family="sans-serif" font-size="14" lengthAdjust="spacing" textLength="113.0938" x="76.45" y="367.7434">WASM Generator</text><text fill="#000000" font-family="sans-serif" font-size="14" lengthAdjust="spacing" textLength="61.9746" x="76.45" y="384.2317">(fallback)</text></g><!--entity API--><g class="entity" data-entity="API" data-source-line="16" data-uid="ent0007" id="entity_API"><rect fill="#F1F1F1" height="52.9766" rx="2.5" ry="2.5" style="stroke:#181818;stroke-width:0.5;" width="140.1826" x="559.91" y="765.1283"/><text fill="#000000" font-family="sans-serif" font-size="14" lengthAdjust="spacing" textLength="120.1826" x="569.91" y="788.6634">Next.js Serverless</text><text fill="#000000" font-family="sans-serif" font-size="14" lengthAdjust="spacing" textLength="72.1738" x="569.91" y="805.1517">API Routes</text></g><!--entity AUTH--><g class="entity" data-entity="AUTH" data-source-line="17" data-uid="ent0008" id="entity_AUTH"><rect fill="#F1F1F1" height="52.9766" rx="2.5" ry="2.5" style="stroke:#181818;stroke-width:0.5;" width="68.0977" x="1026.95" y="612.6783"/><text fill="#000000" font-family="sans-serif" font-size="14" lengthAdjust="spacing" textLength="48.0977" x="1036.95" y="636.2134">Auth.js</text><text fill="#000000" font-family="sans-serif" font-size="14" lengthAdjust="spacing" textLength="35.082" x="1036.95" y="652.7017">OIDC</text></g><!--entity STRIPE_WEBHOOK--><g class="entity" data-entity="STRIPE_WEBHOOK" data-source-line="18" data-uid="ent0009" id="entity_STRIPE_WEBHOOK"><rect fill="#F1F1F1" height="52.9766" rx="2.5" ry="2.5" style="stroke:#181818;stroke-width:0.5;" width="126.251" x="734.87" y="612.6783"/><text fill="#000000" font-family="sans-serif" font-size="14" lengthAdjust="spacing" textLength="106.251" x="744.87" y="636.2134">Stripe Webhook</text><text fill="#000000" font-family="sans-serif" font-size="14" lengthAdjust="spacing" textLength="53.0947" x="744.87" y="652.7017">Handler</text></g><!--entity LB_API--><g class="entity" data-entity="LB_API" data-source-line="19" data-uid="ent0010" id="entity_LB_API"><rect fill="#F1F1F1" height="52.9766" rx="2.5" ry="2.5" style="stroke:#181818;stroke-width:0.5;" width="130.8789" x="1129.56" y="612.6783"/><text fill="#000000" font-family="sans-serif" font-size="14" lengthAdjust="spacing" textLength="110.8789" x="1139.56" y="636.2134">Leaderboard API</text><text fill="#000000" font-family="sans-serif" font-size="14" lengthAdjust="spacing" textLength="84.4307" x="1139.56" y="652.7017">(Read/Write)</text></g><!--entity ARCHIVE_API--><g class="entity" data-entity="ARCHIVE_API" data-source-line="20" data-uid="ent0011" id="entity_ARCHIVE_API"><rect fill="#F1F1F1" height="52.9766" rx="2.5" ry="2.5" style="stroke:#181818;stroke-width:0.5;" width="96.2002" x="895.9" y="612.6783"/><text fill="#000000" font-family="sans-serif" font-size="14" lengthAdjust="spacing" textLength="76.2002" x="905.9" y="636.2134">Archive API</text><text fill="#000000" font-family="sans-serif" font-size="14" lengthAdjust="spacing" textLength="69.3301" x="905.9" y="652.7017">(Calendar)</text></g><!--entity VERCEL_CRON--><g class="entity" data-entity="VERCEL_CRON" data-source-line="21" data-uid="ent0012" id="entity_VERCEL_CRON"><rect fill="#F1F1F1" height="52.9766" rx="2.5" ry="2.5" style="stroke:#181818;stroke-width:0.5;" width="139.5127" x="560.24" y="612.6783"/><text fill="#000000" font-family="sans-serif" font-size="14" lengthAdjust="spacing" textLength="119.5127" x="570.24" y="636.2134">Daily Puzzle Cron</text><text fill="#000000" font-family="sans-serif" font-size="14" lengthAdjust="spacing" textLength="50.8047" x="570.24" y="652.7017">(Vercel)</text></g><!--entity GOOGLE--><g class="entity" data-entity="GOOGLE" data-source-line="25" data-uid="ent0014" id="entity_GOOGLE"><rect fill="#F1F1F1" height="36.4883" rx="2.5" ry="2.5" style="stroke:#181818;stroke-width:0.5;" width="107.4043" x="1449.3" y="773.3783"/><text fill="#000000" font-family="sans-serif" font-size="14" lengthAdjust="spacing" textLength="87.4043" x="1459.3" y="796.9134">Google OIDC</text></g><!--entity APPLE--><g class="entity" data-entity="APPLE" data-source-line="26" data-uid="ent0015" id="entity_APPLE"><rect fill="#F1F1F1" height="36.4883" rx="2.5" ry="2.5" style="stroke:#181818;stroke-width:0.5;" width="98.6406" x="1315.68" y="773.3783"/><text fill="#000000" font-family="sans-serif" font-size="14" lengthAdjust="spacing" textLength="78.6406" x="1325.68" y="796.9134">Apple OIDC</text></g><!--entity DB--><g class="entity" data-entity="DB" data-source-line="30" data-uid="ent0017" id="entity_DB"><path d="M1110.02,936.3483 C1110.02,926.3483 1169.0029,926.3483 1169.0029,926.3483 C1169.0029,926.3483 1227.9858,926.3483 1227.9858,936.3483 L1227.9858,961.8366 C1227.9858,971.8366 1169.0029,971.8366 1169.0029,971.8366 C1169.0029,971.8366 1110.02,971.8366 1110.02,961.8366 L1110.02,936.3483" fill="#F1F1F1" style="stroke:#181818;stroke-width:0.5;"/><path d="M1110.02,936.3483 C1110.02,946.3483 1169.0029,946.3483 1169.0029,946.3483 C1169.0029,946.3483 1227.9858,946.3483 1227.9858,936.3483" fill="none" style="stroke:#181818;stroke-width:0.5;"/><text fill="#000000" font-family="sans-serif" font-size="14" lengthAdjust="spacing" textLength="97.9658" x="1120.02" y="963.8834">Neon Postgres</text></g><!--entity REDIS--><g class="entity" data-entity="REDIS" data-source-line="31" data-uid="ent0018" id="entity_REDIS"><path d="M1263.24,928.1083 C1263.24,918.1083 1320.9993,918.1083 1320.9993,918.1083 C1320.9993,918.1083 1378.7586,918.1083 1378.7586,928.1083 L1378.7586,970.0848 C1378.7586,980.0848 1320.9993,980.0848 1320.9993,980.0848 C1320.9993,980.0848 1263.24,980.0848 1263.24,970.0848 L1263.24,928.1083" fill="#F1F1F1" style="stroke:#181818;stroke-width:0.5;"/><path d="M1263.24,928.1083 C1263.24,938.1083 1320.9993,938.1083 1320.9993,938.1083 C1320.9993,938.1083 1378.7586,938.1083 1378.7586,928.1083" fill="none" style="stroke:#181818;stroke-width:0.5;"/><text fill="#000000" font-family="sans-serif" font-size="14" lengthAdjust="spacing" textLength="95.5186" x="1273.24" y="955.6434">Upstash Redis</text><text fill="#000000" font-family="sans-serif" font-size="14" lengthAdjust="spacing" textLength="52.459" x="1273.24" y="972.1317">(Global)</text></g><!--entity KV--><g class="entity" data-entity="KV" data-source-line="32" data-uid="ent0019" id="entity_KV"><path d="M918.5,928.1083 C918.5,918.1083 996.9961,918.1083 996.9961,918.1083 C996.9961,918.1083 1075.4922,918.1083 1075.4922,928.1083 L1075.4922,970.0848 C1075.4922,980.0848 996.9961,980.0848 996.9961,980.0848 C996.9961,980.0848 918.5,980.0848 918.5,970.0848 L918.5,928.1083" fill="#F1F1F1" style="stroke:#181818;stroke-width:0.5;"/><path d="M918.5,928.1083 C918.5,938.1083 996.9961,938.1083 996.9961,938.1083 C996.9961,938.1083 1075.4922,938.1083 1075.4922,928.1083" fill="none" style="stroke:#181818;stroke-width:0.5;"/><text fill="#000000" font-family="sans-serif" font-size="14" lengthAdjust="spacing" textLength="64.4219" x="928.5" y="955.6434">Vercel KV</text><text fill="#000000" font-family="sans-serif" font-size="14" lengthAdjust="spacing" textLength="136.9922" x="928.5" y="972.1317">(Daily Puzzle Cache)</text></g><!--entity STRIPE_CHECKOUT--><g class="entity" data-entity="STRIPE_CHECKOUT" data-source-line="36" data-uid="ent0021" id="entity_STRIPE_CHECKOUT"><rect fill="#F1F1F1" height="36.4883" rx="2.5" ry="2.5" style="stroke:#181818;stroke-width:0.5;" width="127.6455" x="689.18" y="352.4583"/><text fill="#000000" font-family="sans-serif" font-size="14" lengthAdjust="spacing" textLength="107.6455" x="699.18" y="375.9934">Stripe Checkout</text></g><!--entity STRIPE_EVENTS--><g class="entity" data-entity="STRIPE_EVENTS" data-source-line="37" data-uid="ent0022" id="entity_STRIPE_EVENTS"><rect fill="#F1F1F1" height="36.4883" rx="2.5" ry="2.5" style="stroke:#181818;stroke-width:0.5;" width="107.2881" x="704.36" y="476.1883"/><text fill="#000000" font-family="sans-serif" font-size="14" lengthAdjust="spacing" textLength="87.2881" x="714.36" y="499.7234">Stripe Events</text></g><!--entity RUST_GEN--><g class="entity" data-entity="RUST_GEN" data-source-line="41" data-uid="ent0024" id="entity_RUST_GEN"><rect fill="#F1F1F1" height="52.9766" rx="2.5" ry="2.5" style="stroke:#181818;stroke-width:0.5;" width="121.7734" x="60.11" y="922.6083"/><text fill="#000000" font-family="sans-serif" font-size="14" lengthAdjust="spacing" textLength="101.7734" x="70.11" y="946.1434">Rust Generator</text><text fill="#000000" font-family="sans-serif" font-size="14" lengthAdjust="spacing" textLength="45.0488" x="70.11" y="962.6317">(Fly.io)</text></g><!--entity GEN_CACHE--><g class="entity" data-entity="GEN_CACHE" data-source-line="42" data-uid="ent0025" id="entity_GEN_CACHE"><rect fill="#F1F1F1" height="36.4883" rx="2.5" ry="2.5" style="stroke:#181818;stroke-width:0.5;" width="121.9443" x="59.03" y="1061.1483"/><text fill="#000000" font-family="sans-serif" font-size="14" lengthAdjust="spacing" textLength="101.9443" x="69.03" y="1084.6834">Backend Cache</text></g><!--entity GEN_CRON--><g class="entity" data-entity="GEN_CRON" data-source-line="43" data-uid="ent0026" id="entity_GEN_CRON"><rect fill="#F1F1F1" height="52.9766" rx="2.5" ry="2.5" style="stroke:#181818;stroke-width:0.5;" width="139.5127" x="23.24" y="765.1283"/><text fill="#000000" font-family="sans-serif" font-size="14" lengthAdjust="spacing" textLength="119.5127" x="33.24" y="788.6634">Daily Puzzle Cron</text><text fill="#000000" font-family="sans-serif" font-size="14" lengthAdjust="spacing" textLength="86.5293" x="33.24" y="805.1517">(Fly.io, early)</text></g><!--entity SNAPSHOT--><g class="entity" data-entity="SNAPSHOT" data-source-line="47" data-uid="ent0028" id="entity_SNAPSHOT"><rect fill="#F1F1F1" height="52.9766" rx="2.5" ry="2.5" style="stroke:#181818;stroke-width:0.5;" width="108.6279" x="1612.69" y="765.1283"/><text fill="#000000" font-family="sans-serif" font-size="14" lengthAdjust="spacing" textLength="85.0186" x="1622.69" y="788.6634">Leaderboard</text><text fill="#000000" font-family="sans-serif" font-size="14" lengthAdjust="spacing" textLength="88.6279" x="1622.69" y="805.1517">Snapshot Job</text></g><!--entity P--><g class="entity" data-entity="P" data-source-line="8" data-uid="ent0002" id="entity_P"><ellipse cx="164.9997" cy="51.4883" fill="#F1F1F1" rx="8" ry="8" style="stroke:#181818;stroke-width:0.5;"/><path d="M164.9997,59.4883 L164.9997,86.4883 M151.9997,67.4883 L177.9997,67.4883 M164.9997,86.4883 L151.9997,101.4883 M164.9997,86.4883 L177.9997,101.4883" fill="none" style="stroke:#181818;stroke-width:0.5;"/><text fill="#000000" font-family="sans-serif" font-size="14" lengthAdjust="spacing" textLength="40.3594" x="144.82" y="116.5234">Player</text></g><g class="entity" data-entity="GMN53" data-source-line="81" data-uid="ent0054" id="entity_GMN53"><path d="M1414.07,928.7883 L1414.07,969.4094 L1671.9201,969.4094 L1671.9201,938.7883 L1661.9201,928.7883 L1414.07,928.7883" fill="#FEFFDD" style="stroke:#181818;stroke-width:0.5;"/><path d="M1661.9201,928.7883 L1661.9201,938.7883 L1671.9201,938.7883 L1661.9201,928.7883" fill="#FEFFDD" style="stroke:#181818;stroke-width:1;"/><text fill="#000000" font-family="sans-serif" font-size="13" lengthAdjust="spacing" textLength="236.8501" x="1420.07" y="946.3566">Vercel cron pulls from backend cache</text><text fill="#000000" font-family="sans-serif" font-size="13" lengthAdjust="spacing" textLength="195.3047" x="1420.07" y="961.6672">and writes daily puzzle into KV</text></g><g class="entity" data-entity="GMN56" data-source-line="86" data-uid="ent0057" id="entity_GMN56"><path d="M252.29,1059.0883 L252.29,1075.3983 L181.15,1079.3983 L252.29,1083.3983 L252.29,1099.7094 A0,0 0 0 0 252.29,1099.7094 L465.7129,1099.7094 A0,0 0 0 0 465.7129,1099.7094 L465.7129,1069.0883 L455.7129,1059.0883 L252.29,1059.0883 A0,0 0 0 0 252.29,1059.0883" fill="#FEFFDD" style="stroke:#181818;stroke-width:0.5;"/><path d="M455.7129,1059.0883 L455.7129,1069.0883 L465.7129,1069.0883 L455.7129,1059.0883" fill="#FEFFDD" style="stroke:#181818;stroke-width:0.5;"/><text fill="#000000" font-family="sans-serif" font-size="13" lengthAdjust="spacing" textLength="192.4229" x="258.29" y="1076.6566">Fly.io cron runs slightly before</text><text fill="#000000" font-family="sans-serif" font-size="13" lengthAdjust="spacing" textLength="166.5117" x="258.29" y="1091.9672">Vercel cron to warm cache</text></g><g class="entity" data-entity="GMN59" data-source-line="91" data-uid="ent0060" id="entity_GMN59"><path d="M1706.5,928.7883 L1706.5,969.4094 L1927.4956,969.4094 L1927.4956,938.7883 L1917.4956,928.7883 L1706.5,928.7883" fill="#FEFFDD" style="stroke:#181818;stroke-width:0.5;"/><path d="M1917.4956,928.7883 L1917.4956,938.7883 L1927.4956,938.7883 L1917.4956,928.7883" fill="#FEFFDD" style="stroke:#181818;stroke-width:1;"/><text fill="#000000" font-family="sans-serif" font-size="13" lengthAdjust="spacing" textLength="199.9956" x="1712.5" y="946.3566">Primary writes + global replicas</text><text fill="#000000" font-family="sans-serif" font-size="13" lengthAdjust="spacing" textLength="137.8838" x="1712.5" y="961.6672">Allow seconds of drift</text></g><g class="entity" data-entity="GMN62" data-source-line="96" data-uid="ent0063" id="entity_GMN62"><path d="M1295.73,611.1983 L1295.73,667.1299 L1446.2666,667.1299 L1446.2666,621.1983 L1436.2666,611.1983 L1295.73,611.1983" fill="#FEFFDD" style="stroke:#181818;stroke-width:0.5;"/><path d="M1436.2666,611.1983 L1436.2666,621.1983 L1446.2666,621.1983 L1436.2666,611.1983" fill="#FEFFDD" style="stroke:#181818;stroke-width:1;"/><text fill="#000000" font-family="sans-serif" font-size="13" lengthAdjust="spacing" textLength="129.5366" x="1301.73" y="628.7666">JWT session strategy</text><text fill="#000000" font-family="sans-serif" font-size="13" lengthAdjust="spacing" textLength="101.5181" x="1301.73" y="644.0772">HttpOnly cookie</text><text fill="#000000" font-family="sans-serif" font-size="13" lengthAdjust="spacing" textLength="101.8354" x="1301.73" y="659.3877">10-day maxAge</text></g><!--link P to UI--><g class="link" data-entity-1="P" data-entity-2="UI" data-source-line="50" data-uid="lnk29" id="link_P_UI"><path d="M165,119.8883 C165,145.5183 165,172.7583 165,195.3583" fill="none" id="P-to-UI" style="stroke:#181818;stroke-width:1;"/><polygon fill="#181818" points="165,201.3583,169,192.3583,165,196.3583,161,192.3583,165,201.3583" style="stroke:#181818;stroke-width:1;"/></g><!--link UI to API--><g class="link" data-entity-1="UI" data-entity-2="API" data-source-line="51" data-uid="lnk30" id="link_UI_API"><path d="M223.79,240.5383 C321.57,261.4883 507,309.1883 507,369.6983 C507,369.6983 507,369.6983 507,640.1683 C507,693.4683 549.0237,734.7237 584.9037,761.2237" fill="none" id="UI-to-API" style="stroke:#181818;stroke-width:1;"/><polygon fill="#181818" points="589.73,764.7883,584.8669,756.2238,585.708,761.8178,580.1141,762.6589,589.73,764.7883" style="stroke:#181818;stroke-width:1;"/><text fill="#000000" font-family="sans-serif" font-size="13" lengthAdjust="spacing" textLength="109.2622" x="508" y="499.4966">gameplay, scores</text></g><!--link UI to API--><g class="link" data-entity-1="UI" data-entity-2="API" data-source-line="54" data-uid="lnk33" id="link_UI_API"><path d="M223.92,246.7383 C243.8,255.3183 264.59,267.5283 279,284.4583 C354.89,373.6083 269.45,456.7483 355,536.6783 C366.66,547.5683 376.64,535.9583 390,544.6783 C446.78,581.7383 440.16,612.9983 481,667.1283 C496.85,688.1383 497.86,696.0783 517,714.1283 C537.42,733.3883 558.0616,748.0289 579.8116,761.6189" fill="none" id="UI-to-API-1" style="stroke:#181818;stroke-width:1;"/><polygon fill="#181818" points="584.9,764.7983,579.387,756.637,580.6597,762.1488,575.1478,763.4215,584.9,764.7983" style="stroke:#181818;stroke-width:1;"/><text fill="#000000" font-family="sans-serif" font-size="13" lengthAdjust="spacing" textLength="107.1548" x="356" y="499.4966">daily puzzle load</text></g><!--link UI to AUTH--><g class="link" data-entity-1="UI" data-entity-2="AUTH" data-source-line="52" data-uid="lnk31" id="link_UI_AUTH"><path d="M223.84,229.5683 C367.71,232.0583 732.87,244.7483 833,309.4583 C952,386.3583 1023.8933,543.8568 1049.1033,606.9368" fill="none" id="UI-to-AUTH" style="stroke:#181818;stroke-width:1;"/><polygon fill="#181818" points="1051.33,612.5083,1051.7044,602.6665,1049.4744,607.8653,1044.2756,605.6354,1051.33,612.5083" style="stroke:#181818;stroke-width:1;"/><text fill="#000000" font-family="sans-serif" font-size="13" lengthAdjust="spacing" textLength="94.4404" x="963.34" y="442.7566">sign-in / claim</text></g><!--link UI to STRIPE_CHECKOUT--><g class="link" data-entity-1="UI" data-entity-2="STRIPE_CHECKOUT" data-source-line="53" data-uid="lnk32" id="link_UI_STRIPE_CHECKOUT"><path d="M223.81,233.8183 C297.14,240.7683 425.91,256.0083 533,284.4583 C598.72,301.9183 666.2366,330.1203 709.4366,349.5203" fill="none" id="UI-to-STRIPE_CHECKOUT" style="stroke:#181818;stroke-width:1;"/><polygon fill="#181818" points="714.91,351.9783,708.3385,344.6424,710.3488,349.93,705.0612,351.9403,714.91,351.9783" style="stroke:#181818;stroke-width:1;"/><text fill="#000000" font-family="sans-serif" font-size="13" lengthAdjust="spacing" textLength="106.4121" x="583.42" y="298.0266">purchase archive</text></g><!--link UI to RUST_GEN--><g class="link" data-entity-1="UI" data-entity-2="RUST_GEN" data-source-line="55" data-uid="lnk34" id="link_UI_RUST_GEN"><path d="M206.76,254.7483 C216.49,262.9583 225.58,272.9383 231,284.4583 C234.16,291.1883 233,544.7383 233,552.1783 C233,552.1783 233,552.1783 240,792.6183 C240,827.1383 236.95,838.2583 218,867.1083 C203.55,889.1083 186.1876,904.7564 166.6576,918.9164" fill="none" id="UI-to-RUST_GEN" style="stroke:#181818;stroke-width:1;"/><polygon fill="#181818" points="161.8,922.4383,171.4343,920.3938,165.848,919.5033,166.7384,913.917,161.8,922.4383" style="stroke:#181818;stroke-width:1;"/><text fill="#000000" font-family="sans-serif" font-size="13" lengthAdjust="spacing" textLength="147.2783" x="234.02" y="558.2466">puzzle generate (HTTP)</text></g><!--link UI to WASM--><g class="link" data-entity-1="UI" data-entity-2="WASM" data-source-line="56" data-uid="lnk35" id="link_UI_WASM"><path d="M126.93,254.6883 C117.7,263.0083 109.04,273.0683 104,284.4583 C95.4,303.8983 101.082,321.5643 111.152,338.7143" fill="none" id="UI-to-WASM" style="stroke:#181818;stroke-width:1;"/><polygon fill="#181818" points="114.19,343.8883,113.0823,334.1019,111.6583,339.5766,106.1836,338.1526,114.19,343.8883" style="stroke:#181818;stroke-width:1;"/><text fill="#000000" font-family="sans-serif" font-size="13" lengthAdjust="spacing" textLength="121.0371" x="105" y="298.0266">fallback generation</text></g><!--link AUTH to GOOGLE--><g class="link" data-entity-1="AUTH" data-entity-2="GOOGLE" data-source-line="58" data-uid="lnk36" id="link_AUTH_GOOGLE"><path d="M1095.46,660.2483 C1100.88,662.8483 1106.5,665.2583 1112,667.1283 C1248.6,713.6583 1303.26,656.9283 1432,722.1283 C1455.83,734.1983 1473.2219,752.3291 1486.1019,768.2891" fill="none" id="AUTH-to-GOOGLE" style="stroke:#181818;stroke-width:1;"/><polygon fill="#181818" points="1489.87,772.9583,1487.3306,763.4424,1486.7299,769.0673,1481.105,768.4666,1489.87,772.9583" style="stroke:#181818;stroke-width:1;"/></g><!--link AUTH to APPLE--><g class="link" data-entity-1="AUTH" data-entity-2="APPLE" data-source-line="59" data-uid="lnk37" id="link_AUTH_APPLE"><path d="M1095.47,659.3583 C1100.93,662.1183 1106.57,664.7983 1112,667.1283 C1182.66,697.4183 1208.16,685.9683 1276,722.1283 C1302.32,736.1583 1324.4765,753.9123 1341.6665,769.1223" fill="none" id="AUTH-to-APPLE" style="stroke:#181818;stroke-width:1;"/><polygon fill="#181818" points="1346.16,773.0983,1342.0703,764.1387,1342.4154,769.785,1336.7691,770.13,1346.16,773.0983" style="stroke:#181818;stroke-width:1;"/></g><!--link API to DB--><g class="link" data-entity-1="API" data-entity-2="DB" data-source-line="61" data-uid="lnk38" id="link_API_DB"><path d="M700.25,812.0783 C734.89,822.3083 777.05,835.6883 814,850.1083 C830.48,856.5383 832.8,862.9483 850,867.1083 C876.26,873.4483 1068.11,864.6083 1093,875.1083 C1118.12,885.6983 1136.0247,903.977 1149.7147,921.337" fill="none" id="API-to-DB" style="stroke:#181818;stroke-width:1;"/><polygon fill="#181818" points="1153.43,926.0483,1150.9979,916.5044,1150.3339,922.1222,1144.7162,921.4582,1153.43,926.0483" style="stroke:#181818;stroke-width:1;"/><text fill="#000000" font-family="sans-serif" font-size="13" lengthAdjust="spacing" textLength="177.8486" x="851" y="863.6766">users, puzzles, entitlements</text></g><!--link API to KV--><g class="link" data-entity-1="API" data-entity-2="KV" data-source-line="62" data-uid="lnk39" id="link_API_KV"><path d="M565.07,818.4683 C541.34,831.6683 523.65,848.8083 539,867.1083 C586.48,923.7183 794.1257,940.5176 912.1057,945.6476" fill="none" id="API-to-KV" style="stroke:#181818;stroke-width:1;"/><polygon fill="#181818" points="918.1,945.9083,909.2823,941.5211,913.1047,945.6911,908.9347,949.5135,918.1,945.9083" style="stroke:#181818;stroke-width:1;"/><text fill="#000000" font-family="sans-serif" font-size="13" lengthAdjust="spacing" textLength="115.8574" x="540" y="863.6766">daily puzzle cache</text></g><!--link API to KV--><g class="link" data-entity-1="API" data-entity-2="KV" data-source-line="78" data-uid="lnk52" id="link_API_KV"><path d="M647,818.5783 C658.9,834.7883 676.17,854.8283 696,867.1083 C764.21,909.3383 848.439,928.901 912.239,938.661" fill="none" id="API-to-KV-1" style="stroke:#181818;stroke-width:1;"/><polygon fill="#181818" points="918.17,939.5683,909.8784,934.2533,913.2275,938.8122,908.6686,942.1613,918.17,939.5683" style="stroke:#181818;stroke-width:1;"/><text fill="#000000" font-family="sans-serif" font-size="13" lengthAdjust="spacing" textLength="112.0869" x="697" y="863.6766">store daily puzzle</text></g><!--link API to RUST_GEN--><g class="link" data-entity-1="API" data-entity-2="RUST_GEN" data-source-line="63" data-uid="lnk40" id="link_API_RUST_GEN"><path d="M559.61,800.1883 C496.08,808.3083 400.64,823.7383 321,850.1083 C264.84,868.6983 209.601,897.1295 170.031,919.3595" fill="none" id="API-to-RUST_GEN" style="stroke:#181818;stroke-width:1;"/><polygon fill="#181818" points="164.8,922.2983,174.6057,921.3775,169.1592,919.8493,170.6874,914.4028,164.8,922.2983" style="stroke:#181818;stroke-width:1;"/><text fill="#000000" font-family="sans-serif" font-size="13" lengthAdjust="spacing" textLength="202.9409" x="322" y="863.6766">daily puzzle fetch (miss or cron)</text></g><!--link LB_API to REDIS--><g class="link" data-entity-1="LB_API" data-entity-2="REDIS" data-source-line="64" data-uid="lnk41" id="link_LB_API_REDIS"><path d="M1260.76,663.1683 C1266.54,664.6883 1272.35,666.0483 1278,667.1283 C1342.55,679.5183 1825.21,671.3983 1867,722.1283 C1900.9,763.2883 1902.09,801.9583 1867,842.1083 C1839.7,873.3483 1723.35,863.7383 1682,867.1083 C1650.43,869.6783 1426.22,862.8683 1397,875.1083 C1375.74,884.0083 1360.9062,897.274 1347.3462,913.084" fill="none" id="LB_API-to-REDIS" style="stroke:#181818;stroke-width:1;"/><polygon fill="#181818" points="1343.44,917.6383,1352.3355,913.4109,1346.6951,913.843,1346.263,908.2027,1343.44,917.6383" style="stroke:#181818;stroke-width:1;"/><text fill="#000000" font-family="sans-serif" font-size="13" lengthAdjust="spacing" textLength="81.1802" x="1893.87" y="796.6866">zadd/zrange</text></g><!--link LB_API to DB--><g class="link" data-entity-1="LB_API" data-entity-2="DB" data-source-line="65" data-uid="lnk42" id="link_LB_API_DB"><path d="M1260.82,662.8283 C1266.59,664.4283 1272.38,665.8883 1278,667.1283 C1378.33,689.2183 1668.82,645.2883 1737,722.1283 C1772.39,762.0183 1764.85,796.6383 1737,842.1083 C1724.23,862.9583 1711.72,861.1783 1688,867.1083 C1640.35,879.0183 1291.46,856.5083 1246,875.1083 C1220.6,885.4983 1202.4177,903.8247 1188.5377,921.2547" fill="none" id="LB_API-to-DB" style="stroke:#181818;stroke-width:1;"/><polygon fill="#181818" points="1184.8,925.9483,1193.5356,921.3996,1187.9147,922.0369,1187.2774,916.4161,1184.8,925.9483" style="stroke:#181818;stroke-width:1;"/><text fill="#000000" font-family="sans-serif" font-size="13" lengthAdjust="spacing" textLength="96.2622" x="1761.8" y="796.6866">snapshot reads</text></g><!--link ARCHIVE_API to DB--><g class="link" data-entity-1="ARCHIVE_API" data-entity-2="DB" data-source-line="66" data-uid="lnk43" id="link_ARCHIVE_API_DB"><path d="M992.19,661.9683 C1037.31,682.7583 1098.97,712.3283 1107,722.1283 C1157.27,783.4983 1166.6899,876.4831 1168.4399,920.1731" fill="none" id="ARCHIVE_API-to-DB" style="stroke:#181818;stroke-width:1;"/><polygon fill="#181818" points="1168.68,926.1683,1172.3166,917.0154,1168.4799,921.1723,1164.323,917.3356,1168.68,926.1683" style="stroke:#181818;stroke-width:1;"/><text fill="#000000" font-family="sans-serif" font-size="13" lengthAdjust="spacing" textLength="110.8682" x="1159.05" y="796.6866">historical puzzles</text></g><!--link STRIPE_CHECKOUT to STRIPE_EVENTS--><g class="link" data-entity-1="STRIPE_CHECKOUT" data-entity-2="STRIPE_EVENTS" data-source-line="68" data-uid="lnk44" id="link_STRIPE_CHECKOUT_STRIPE_EVENTS"><path d="M753.73,389.3983 C754.68,412.4783 756.0733,446.6234 757.0233,469.7134" fill="none" id="STRIPE_CHECKOUT-to-STRIPE_EVENTS" style="stroke:#181818;stroke-width:1;"/><polygon fill="#181818" points="757.27,475.7083,760.8966,466.5515,757.0645,470.7125,752.9034,466.8803,757.27,475.7083" style="stroke:#181818;stroke-width:1;"/></g><!--link STRIPE_EVENTS to STRIPE_WEBHOOK--><g class="link" data-entity-1="STRIPE_EVENTS" data-entity-2="STRIPE_WEBHOOK" data-source-line="69" data-uid="lnk45" id="link_STRIPE_EVENTS_STRIPE_WEBHOOK"><path d="M762.9,512.9383 C769.87,537.7983 781.0601,577.7411 789.1301,606.5211" fill="none" id="STRIPE_EVENTS-to-STRIPE_WEBHOOK" style="stroke:#181818;stroke-width:1;"/><polygon fill="#181818" points="790.75,612.2983,792.1715,602.5526,789.4001,607.484,784.4686,604.7125,790.75,612.2983" style="stroke:#181818;stroke-width:1;"/></g><!--link STRIPE_WEBHOOK to DB--><g class="link" data-entity-1="STRIPE_WEBHOOK" data-entity-2="DB" data-source-line="70" data-uid="lnk46" id="link_STRIPE_WEBHOOK_DB"><path d="M808.54,666.0983 C828.25,710.8483 875.29,801.6283 947,842.1083 C963.71,851.5383 1014.37,845.4783 1033,850.1083 C1061.03,857.0783 1068.84,859.2783 1093,875.1083 C1114.73,889.3383 1131.6984,905.8037 1146.0984,921.6037" fill="none" id="STRIPE_WEBHOOK-to-DB" style="stroke:#181818;stroke-width:1;"/><polygon fill="#181818" points="1150.14,926.0383,1147.0339,916.692,1146.772,922.3428,1141.1212,922.0809,1150.14,926.0383" style="stroke:#181818;stroke-width:1;"/><text fill="#000000" font-family="sans-serif" font-size="13" lengthAdjust="spacing" textLength="150.9282" x="948" y="796.6866">entitlements, purchases</text></g><!--link SNAPSHOT to DB--><g class="link" data-entity-1="SNAPSHOT" data-entity-2="DB" data-source-line="72" data-uid="lnk47" id="link_SNAPSHOT_DB"><path d="M1626.36,818.3883 C1610.32,827.3683 1591.37,836.5783 1573,842.1083 C1433.14,884.2383 1378.8,814.2683 1246,875.1083 C1221.22,886.4583 1203.1598,904.443 1189.1298,921.513" fill="none" id="SNAPSHOT-to-DB" style="stroke:#181818;stroke-width:1;"/><polygon fill="#181818" points="1185.32,926.1483,1194.1248,921.7352,1188.4948,922.2856,1187.9445,916.6555,1185.32,926.1483" style="stroke:#181818;stroke-width:1;"/><text fill="#000000" font-family="sans-serif" font-size="13" lengthAdjust="spacing" textLength="137.4839" x="1541.99" y="863.6766">leaderboard snapshot</text></g><!--link SNAPSHOT to REDIS--><g class="link" data-entity-1="SNAPSHOT" data-entity-2="REDIS" data-source-line="73" data-uid="lnk48" id="link_SNAPSHOT_REDIS"><path d="M1644.02,818.3483 C1626.89,835.5783 1601.9,856.8983 1575,867.1083 C1537.98,881.1583 1433.39,859.5083 1397,875.1083 C1375.81,884.1883 1360.9864,897.4727 1347.4164,913.2227" fill="none" id="SNAPSHOT-to-REDIS" style="stroke:#181818;stroke-width:1;"/><polygon fill="#181818" points="1343.5,917.7683,1352.4049,913.5609,1346.7637,913.9803,1346.3442,908.339,1343.5,917.7683" style="stroke:#181818;stroke-width:1;"/><text fill="#000000" font-family="sans-serif" font-size="13" lengthAdjust="spacing" textLength="66.7837" x="1607.15" y="863.6766">read top N</text></g><!--link GEN_CRON to RUST_GEN--><g class="link" data-entity-1="GEN_CRON" data-entity-2="RUST_GEN" data-source-line="75" data-uid="lnk49" id="link_GEN_CRON_RUST_GEN"><path d="M69.25,818.5283 C59.29,832.5683 51.2,850.4183 57,867.1083 C64.29,888.0983 75.4351,903.3823 89.2151,918.0723" fill="none" id="GEN_CRON-to-RUST_GEN" style="stroke:#181818;stroke-width:1;"/><polygon fill="#181818" points="93.32,922.4483,90.0799,913.1476,89.8992,918.8016,84.2453,918.6209,93.32,922.4483" style="stroke:#181818;stroke-width:1;"/><text fill="#000000" font-family="sans-serif" font-size="13" lengthAdjust="spacing" textLength="155.9302" x="58" y="863.6766">precompute daily puzzle</text></g><!--link RUST_GEN to GEN_CACHE--><g class="link" data-entity-1="RUST_GEN" data-entity-2="GEN_CACHE" data-source-line="76" data-uid="lnk50" id="link_RUST_GEN_GEN_CACHE"><path d="M120.8,976.0583 C120.6,1001.2483 120.3565,1032.7885 120.1865,1054.7085" fill="none" id="RUST_GEN-to-GEN_CACHE" style="stroke:#181818;stroke-width:1;"/><polygon fill="#181818" points="120.14,1060.7083,124.2097,1051.7396,120.1788,1055.7084,116.2099,1051.6775,120.14,1060.7083" style="stroke:#181818;stroke-width:1;"/><text fill="#000000" font-family="sans-serif" font-size="13" lengthAdjust="spacing" textLength="160.3101" x="121.5" y="1025.6566">read/write cached puzzle</text></g><!--link VERCEL_CRON to API--><g class="link" data-entity-1="VERCEL_CRON" data-entity-2="API" data-source-line="77" data-uid="lnk51" id="link_VERCEL_CRON_API"><path d="M630,666.0283 C630,693.7583 630,731.4983 630,759.0883" fill="none" id="VERCEL_CRON-to-API" style="stroke:#181818;stroke-width:1;"/><polygon fill="#181818" points="630,765.0883,634,756.0883,630,760.0883,626,756.0883,630,765.0883" style="stroke:#181818;stroke-width:1;"/><text fill="#000000" font-family="sans-serif" font-size="13" lengthAdjust="spacing" textLength="111.6616" x="631" y="710.6966">fetch daily puzzle</text></g><!--link KV to GMN53--><g class="link" data-entity-1="KV" data-entity-2="GMN53" data-source-line="81" data-uid="lnk55" id="link_KV_GMN53"><path d="M1024.83,917.8283 C1045.94,896.5983 1076.96,870.3383 1110.5,858.6083 C1166.51,839.0183 1320.01,843.9183 1377.5,858.6083 C1430.17,872.0683 1484.12,906.1183 1515.55,928.3983" fill="none" id="KV-GMN53" style="stroke:#181818;stroke-width:1;stroke-dasharray:7,7;"/></g><!--link REDIS to GMN59--><g class="link" data-entity-1="REDIS" data-entity-2="GMN59" data-source-line="91" data-uid="lnk61" id="link_REDIS_GMN59"><path d="M1342.73,917.8383 C1359.54,896.6183 1384.9,870.3583 1414.5,858.6083 C1467.58,837.5283 1616.58,842.9283 1671.5,858.6083 C1718.98,872.1683 1766.06,906.1883 1793.3,928.4383" fill="none" id="REDIS-GMN59" style="stroke:#181818;stroke-width:1;stroke-dasharray:7,7;"/></g><!--link AUTH to GMN62--><g class="link" data-entity-1="AUTH" data-entity-2="GMN62" data-source-line="96" data-uid="lnk64" id="link_AUTH_GMN62"><path d="M1072.82,612.5783 C1083.95,591.4483 1102.89,563.7383 1129.5,553.1783 C1182.79,532.0183 1204.19,534.7983 1258.5,553.1783 C1292.03,564.5283 1323.44,590.3083 1344.5,610.7083" fill="none" id="AUTH-GMN62" style="stroke:#181818;stroke-width:1;stroke-dasharray:7,7;"/></g><!--SRC=[XLPDR-Cs4BthLmpIIunDrYrwAB270hAijPraBS6o7HG8OD0IBR6XIO6aapX5_tk7eYHBoWPrWC0CttozUJECOOPJ-47UyRUlqe8PcfgJed3jdqm1No0nYfKKlpnGab6rbqHb8qy_Cr4IHOwGocCf1HKcCMVqeT2SY9pJ3aGN99ElJEHm85ntR_OaVSwLF8aia5mg-ELxzUaWMdyJgJ1y3Vkz-lmKzi7Z7_R7yqXgy1XpSgOAY8ROyreZk0eumnBWUgBagwPgT6KXmSCYNAxX7mykLSBLahwPhtzhs2oUn7LS48J3Z1ofizai-kX7F_a1Coge8XWVBP02RijsS7lj_TjBPKjLIdbrkmrNGVZmMG89LIzKSQhra_3Z1QpaoL1T6UAnRsERYJPF8bfC0mVPhETzJDtfHxelf7n-4dCYCavLXKxMgqKSxXx3oJoAxljs7M7Om5ZZ2lyoVbIe9LVbmsJtCIChjXTQMmI4Kv6HcdX_5SmNs_2ZqPGmVeRuz6xb6YWfqDJnDUeGjWjMqNB0QlXcg1A4mo93JyoSAxnbOqZlJ4fhqH8rYwBPGpX8lYox43-E4T4FE2M6uF18LRTawg_zAbI65tjKZMsa511BRV8MDEa1DgKsH1UmeXd3tbtFkDoJkjHLE5qaFRGZ0kwtYEmJHTAYxiJzTf1cJCv7BCc5Z_s_XcpKeWWAcZwZlhfY2EPXS1zjrZyr25zQhpKytE8m9OFmxMGugiFbCFxgf4rlVhxpyrScQmusoNg7HdqJkm9GJAxinkyky37V_rUJSty3b2X-7bsiFoegAlNuJkvTZNVH91cctfcB9v48Kkf26a0JnyhIZvDvjBPUOxYz_TEkZisY-cQd-Hlak5HAt5Ste5Che_OM9nUlDSl5BHCmXfGJTcnk1yr1O7d2KRCA8Mxa-b6oYeJIaS0boPhhXjpAGtMRkpRWsp1Vh-DH0wnMt3Te5bi3Or9uNfMh1TLJr9xTo7Ws1tkSJj332LUflgcZuPTgK3cjzDaYxxV3f5FRv_Q-atOFTQ0cBU3woBG6V0XIRFV8Sul9sTbvGgDtacNZTuLDfjthAa7TD55XQp6bovgwO0gcKQWinLLJ5-9vmvvq-bHFHU_KlMysRlzu2TVbwAPjjOrPw-i2vPqztLJIXpKSsFB0o1AMdjUe_uCcS1HGw_Zaz7ZsMaZLzMRmQgVZL_iek8vbZKLdQNTqwVhLSzsJW6Lv4DeJ4fqhbXS6vC7kkdebscOZY7CD1oNTlnrsGpZbu3C7LLwwhnWcZBHEBD9w7lg_R1MtD5mOTH8QDBSWTBMd1qopbmSwVINgM0V_pBbRxx5YHwBEJNfV8AzU0EIov2Wnb23dyXKqja9asjfbYXtCfrwhH__kSOqMMkE08ejseFEpDpUcZ0HcdEBRpwZtsw-t6Jd3aRpvUIVB_m00]--></g></svg>